<mxfile host="app.diagrams.net" agent="Mozilla/5.0 (Windows NT 10.0; Win64; x64) AppleWebKit/537.36 (KHTML, like Gecko) Chrome/131.0.0.0 Safari/537.36 Edg/131.0.0.0" version="25.0.3">
  <diagram name="第 1 页" id="jHplokGiItMsl90AM7H5">
    <mxGraphModel dx="1386" dy="1950" grid="1" gridSize="10" guides="1" tooltips="1" connect="1" arrows="1" fold="1" page="1" pageScale="1" pageWidth="827" pageHeight="1169" math="0" shadow="0">
      <root>
        <mxCell id="0" />
        <mxCell id="1" parent="0" />
        <mxCell id="0u3PnH_AoCxucKV_yEJA-1" value="" style="shape=image;verticalLabelPosition=bottom;labelBackgroundColor=default;verticalAlign=top;aspect=fixed;imageAspect=0;image=data:image/jpeg,/9j/4AAQSkZJRgABAQEBLAEsAAD/2wBDAAgGBgcGBQgHBwcJCQgKDBQNDAsLDBkSEw8UHRofHh0aHBwgJC4nICIsIxwcKDcpLDAxNDQ0Hyc5PTgyPC4zNDL/2wBDAQkJCQwLDBgNDRgyIRwhMjIyMjIyMjIyMjIyMjIyMjIyMjIyMjIyMjIyMjIyMjIyMjIyMjIyMjIyMjIyMjIyMjL/wAARCAOEA4QDASIAAhEBAxEB/8QAHwAAAQUBAQEBAQEAAAAAAAAAAAECAwQFBgcICQoL/8QAtRAAAgEDAwIEAwUFBAQAAAF9AQIDAAQRBRIhMUEGE1FhByJxFDKBkaEII0KxwRVS0fAkM2JyggkKFhcYGRolJicoKSo0NTY3ODk6Q0RFRkdISUpTVFVWV1hZWmNkZWZnaGlqc3R1dnd4eXqDhIWGh4iJipKTlJWWl5iZmqKjpKWmp6ipqrKztLW2t7i5usLDxMXGx8jJytLT1NXW19jZ2uHi4+Tl5ufo6erx8vP09fb3+Pn6/8QAHwEAAwEBAQEBAQEBAQAAAAAAAAECAwQFBgcICQoL/8QAtREAAgECBAQDBAcFBAQAAQJ3AAECAxEEBSExBhJBUQdhcRMiMoEIFEKRobHBCSMzUvAVYnLRChYkNOEl8RcYGRomJygpKjU2Nzg5OkNERUZHSElKU1RVVldYWVpjZGVmZ2hpanN0dXZ3eHl6goOEhYaHiImKkpOUlZaXmJmaoqOkpaanqKmqsrO0tba3uLm6wsPExcbHyMnK0tPU1dbX2Nna4uPk5ebn6Onq8vP09fb3+Pn6/9oADAMBAAIRAxEAPwD5/ooooAKKKKACiiigAooooAKKKKACiiigAooooAKKKKACiiigAooooAKKKKACiiigAooooAKKKKACiiigAooooAKKKKACiiigAooooAKKKKACiiigAooooAKKKKACiiigAooooAKKKKACiiigAooooAKKKKACiiigAooooAKKKKACiiigAooooAKKKKACiiigAooooAKKKKACiiigAooooAKKKKACiiigAooooAKKKKACiiigAooooAKKKKACiiigAooooAKKKKACiiigAooooAKKKKACiiigAooooAKKKKACiiigAooooAKKKKACiiigAooooAKKKKACiirUOnXc8SyxRbkbodwH9aTko6tmlOlUqvlpxbfkrlWirv8AZF9/zw/8fX/Gj+yL7/nh/wCPr/jU+1h3Rt9RxX/PuX3MpUVd/si+/wCeH/j6/wCNH9kX3/PD/wAfX/Gj2sO6D6jiv+fcvuZSoq7/AGRff88P/H1/xo/si+/54f8Aj6/40e1h3QfUcV/z7l9zKVFXf7Ivv+eH/j6/40f2Rff88P8Ax9f8aPaw7oPqOK/59y+5lKirv9kX3/PD/wAfX/Gj+yL7/nh/4+v+NHtYd0H1HFf8+5fcylRV3+yL7/nh/wCPr/jR/ZF9/wA8P/H1/wAaPaw7oPqOK/59y+5lKirv9kX3/PD/AMfX/Gj+yL7/AJ4f+Pr/AI0e1h3QfUcV/wA+5fcylRV3+yL7/nh/4+v+NH9kX3/PD/x9f8aPaw7oPqOK/wCfcvuZSoq7/ZF9/wA8P/H1/wAaP7Ivv+eH/j6/40e1h3QfUcV/z7l9zKVFXf7Ivv8Anh/4+v8AjR/ZF9/zw/8AH1/xo9rDug+o4r/n3L7mUqKu/wBkX3/PD/x9f8aP7Ivv+eH/AI+v+NHtYd0H1HFf8+5fcylRV3+yL7/nh/4+v+NH9kX3/PD/AMfX/Gj2sO6D6jiv+fcvuZSoq7/ZF9/zw/8AH1/xo/si+/54f+Pr/jR7WHdB9RxX/PuX3MpUVd/si+/54f8Aj6/40f2Rff8APD/x9f8AGj2sO6D6jiv+fcvuZSoq7/ZF9/zw/wDH1/xqrNDJBK0Uq7XXqM5pqcZaJmdTDVqS5qkGl5poZRRRVGIUUUUAFFFFABRRRQAUUUUAFFFFABRRRQAUUUUAFFFFABRRRQAUUUUAFFFFABRRRQAUUUUAFFFFABRRRQAUUUUAFFFFABRRRQAUUUUAFFFFABRRRQAUUUUAFFFFABRRRQAUUUUAFFFFABRRRQAUUUUAFFFFABRRRQAUUUUAFFFFABRRRQAUUUUAFFFFABRRRQAUUUUAFFFFABRRRQAUUUUAFdRpH/ILh/4F/wChGuXrqNI/5BcP/Av/AEI1y4v4F6nvcPf71L/C/wA0XqKDnHHWqwuJGcoIfmHUb6zwuAr4qMpUrWjveUY2/wDAmj6ivi6VBpVL3e1k3+SZZoqHzJ/+ff8A8fFHmT/8+/8A4+K1/sqv/ND/AMGU/wD5Ij69S7S/8An/APIk1FQ+ZP8A8+//AI+KPMn/AOff/wAfFH9lV/5of+DKf/yQfXqXaX/gE/8A5EmoqHzJ/wDn3/8AHxR5k/8Az7/+Pij+yq/80P8AwZT/APkg+vUu0v8AwCf/AMiTUVD5k/8Az7/+PijzJ/8An3/8fFH9lV/5of8Agyn/APJB9epdpf8AgE//AJEmoqHzJ/8An3/8fFHmT/8APv8A+Pij+yq/80P/AAZT/wDkg+vUu0v/AACf/wAiTUVD5k//AD7/APj4o8yf/n3/APHxR/ZVf+aH/gyn/wDJB9epdpf+AT/+RJqKh8yf/n3/APHxR5k//Pv/AOPij+yq/wDND/wZT/8Akg+vUu0v/AJ//Ik1FQ+ZP/z7/wDj4o8yf/n3/wDHxR/ZVf8Amh/4Mp//ACQfXqXaX/gE/wD5EmoqHzJ/+ff/AMfFHmT/APPv/wCPij+yq/8AND/wZT/+SD69S7S/8An/APIk1FQ+ZP8A8+//AI+KPMn/AOff/wAfFH9lV/5of+DKf/yQfXqXaX/gE/8A5EmoqHzJ/wDn3/8AHxR5k/8Az7/+Pij+yq/80P8AwZT/APkg+vUu0v8AwCf/AMiTUVD5k/8Az7/+PijzJ/8An3/8fFH9lV/5of8Agyn/APJB9epdpf8AgE//AJEmoqHzJ/8An3/8fFLFK0hYMm3acdc1NTLMRTpyqvlajvacJbu2yk3uOGNpTmoK6b2vGS892kiWuW1f/kKTf8B/9BFdTXLav/yFJv8AgP8A6CKxwnxv0PM4h/3WP+JfkylRRRXonxwUUUUAFFFFABRRRQAUUUUAFFFFABRRRQAUUUUAFFFFABRRRQAUUUUAFFFFABRRRQAUUUUAFFFFABRRRQAUUUUAFFFFABRRRQAUUUUAFFFFABRRRQAUUUUAFFFFABRRRQAUUUUAFFFFABRRRQAUUUUAFFFFABRRRQAUUUUAFFFFABRRRQAUUUUAFFFFABRRRQAUUUUAFFFFABRRRQAUUUUAFdRpH/ILh/4F/wChGuXrUs9Y+y2qQ+Ru25534zk59K58RCU42ietk2KpYau51XZWt17rsdFUUsW/DKdrjoayf+Eh/wCnX/yJ/wDWo/4SH/p1/wDIn/1qxw6xOHqKpT0a9PufdPqup9DVzTL60HCc9PR/5bmtFLvyrDa46ipawJNbEjK32cow/iD5/pW1FLvyrDa46iunF4OM6f1mgrL7Uf5fNd4vo+mz6NvA5lTqydFy5mtna1/Xz/PddUpaKKK8k9cKKKKACiiigAooooAKKKKACiiigAooooAKKKKACiiigAooooAKKKKAEYhVLHoBmorYEQhj1Y7jRck+VsHVyFqUAAADoK9J/usv86kvwiv1cn/4CcX8TF+UF+Mv8kvxFrltX/5Ck3/Af/QRXU1y2r/8hSb/AID/AOgiufCfG/Q87iH/AHWP+JfkylRRRXonxwUUUUAFFFFABRRRQAUUUUAFFFFABRRRQAUUUUAFFFFABRRRQAUUUUAFFFFABRRRQAUUUUAFFFFABRRRQAUUUUAFFFFABRRRQAUUUUAFFFFABRRRQAUUUUAFFFFABRRRQAUUUUAFFFFABRRRQAUUUUAFFFFABRRRQAUUUUAFFFFABRRRQAUUUUAFFFFABRRRQAUUUUAFFFFABRRRQAUUUUAFFFFABRRRQAV2MsW/DKdrjoa46u2rCpiKmHqRqU3Zq/8Awz7p9V1Po8hpQrQqwmtPd/X8SKKXflWG1x1FS1FLFvwyna46GiKXflWG1x1FLEYenWpvE4ZWS+KP8vmu8X0fTZ9G/fo1Z05qhWevR9//ALb8911SlooorzDtCiiigAooooAKKKKACiiigAooooAKKKKACiiigAooooAKKKKAIG+e7UdkGfxqeoLf5jJJ/ebA+gqevSzP3KkcP/z7io/PeX/kzZx4H3oSq/ztv5bL8EgrltX/AOQpN/wH/wBBFdTXLav/AMhSb/gP/oIrnwnxv0PN4h/3WP8AiX5MpUUUV6J8cFFFFABRRRQAUUUUAFFFFABRRRQAUUUUAFFFFABRRRQAUUUUAFFFFABRRRQAUUUUAFFFFABRRRQAUUUUAFFFFABRRRQAUUUUAFFFFABRRRQAUUUUAFFFFABRRRQAUUUUAFFFFABRRRQAUUUUAFFFFABRRRQAUUUUAFFFFABRRRQAUUUUAFFFFABRRRQAUUUUAFFFFABRRRQAUUUUAFFFFABRRRQAUUUUAFdtXE1d/te+/wCe/wD44v8AhXPiKMqlrHs5TmNLB8/tE3e23lfzXc6mopYt+GU7XHQ1zf8Aa99/z3/8cX/Cj+177/nv/wCOL/hU4eFfD1FUptJr+rPun1R6lXPMHWg4TjK3y/z3Okil35VhtcdRUtc7ZXt1dX0aPKCSDg7QO2e1bsUu/KsNrjqK2xmDhKDxGHWn2o/y+a7xfR9Nn0b6stzJV1yTvvZN9f8Ag/nuuqUtFFFeQewFFFFABRRRQAUUUUAFFFFABRRRQAUUUUAFFFFABUcz7IXbvjipKztWneGJWVscHjHfjH9a9DK6Ma2LhGXwrV+kdX+COLMsR9Xws6nW1l6vRfmXok2RKvoKfXLf2vff89//ABxf8KP7Xvv+e/8A44v+FTVo1atSVSbV5Nt/M8ynn2EpwUIxlZabL/M6muW1f/kKTf8AAf8A0EUf2vff89//ABxf8KqzTSTytLK2526nGKuhQlTldnn5rmtHF0VTpppp31t2fmMooorqPACiiigAooooAKKKKACiiigAooooAKKKKACiiigAooooAKKKKACiiigAooooAKKKKACiiigAooooAKKKKACiiigAooooAKKKKACiiigAooooAKKKKACiiigAooooAKKKKACiiigAooooAKKKKACiiigAooooAKKKKACiiigAooooAKKKKACiiigAooooAKKKKACiiigAooooAKKKKACiiigAooooAKKKKACiiigAooooAu6R/wAhSH/gX/oJrpJYt+GU7XHQ1zekf8hSH/gX/oJrqa5Z4iph66qU3Zpf0n3T6o+tyOlCtg5QmtOb9F+JFFLvyrDa46ipagA8y7LdoxjPvU9LMqVOnVi6a5eaKk1/K3rZeVrPXVXtra56+DnOcHzu9m0n3tpf77r5XCiiivPOsKKKKACiiigAooooAKKKKACiiigAooooAKwdckJdV/hzj8v/ANdbrEKpY9AM1z+sAiG2Y9WLsf0r2ctXs6NWs+toL56v8I2+Z4GftyoqmunvP5NJfi/wMqiiiqPjwooooAKKKKACiiigAooooAKKKKACiiigAooooAKKKKACiiigAooooAKKKKACiiigAooooAKKKKACiiigAooooAKKKKACiiigAooooAKKKKACiiigAooooAKKKKACiiigAooooAKKKKACiiigAooooAKKKKACiiigAooooAKKKKACiiigAooooAKKKKACiiigAooooAKKKKACiiigAooooAKKKKACiiigAooooAKKKKACiiigAooooAu6R/yFIf8AgX/oJrp5HEcbMewrmNI/5CkP/Av/AEE10U37yRIu33m+lZU6Ea2LjGfwpXl/hV2/w0XmfU5RVdPATcficrL1aSQ6BCkQz95vmP1qWiiuDE15YitKtLeTufRUaSpU4047JWCiiisDQKKKKACiiigAooooAKKKKACiiigAooooAhuSfK2Dq5C1k+IAALYDoN39K1W+e7UdkGfxrL8Q/wDLt/wL+lezP91SoUPJzfrLRf8AkqT+Z8/mXv0MRV/wxXyav+La+RiUUUVR8gFFFFABRRRQAUUUUAFFFFABRRRQAUUUUAFFFFABRRRQAUUUUAFFFFABRRRQAUUUUAFFFFABRRRQAUUUUAFFFFABRRRQAUUUUAFFFFABRRRQAUUUUAFFFFABRRRQAUUUUAFFFFABRRRQAUUUUAFFFFABRRRQAUUUUAFFFFABRRRQAUUUUAFFFFABRRRQAUUUUAFFFFABRRRQAUUUUAFFFFABRRRQAUUUUAFFFFABRRRQAUUUUAFFFFAF3SP+QpD/AMC/9BNdFB87PKf4jgfQVzemq7XilOoBH5jH9a6pFCIFHQDFPEfuMK5faqaf9uxd397t9zPpshTqKz2g2/m0kvuV/vQtFFFeGfUhRRRQAUUUUAFFFFABRRRQAUUUUAFFFFABRRUcz7IXbvjitaFGVerGlDeTSXz0Iq1FShKpLZK/3DLf5jJJ/ebA+grL8Q/8u3/Av6VsRJsiVfQVj+If+Xb/AIF/Su/EVo1cdKUPhvZeiVl+CR4uOpunlbUt9G/VyTf4sxKKKK3PjQooooAKKKKACiiigAooooAKKKKACiiigAooooAKKKKACiiigAooooAKKKKACiiigAooooAKKKKACiiigAooooAKKKKACiiigAooooAKKKKACiiigAooooAKKKKACiiigAooooAKKKKACiiigAooooAKKKKACiiigAooooAKKKKACiiigAooooAKKKKACiiigAooooAKKKKACiiigAooooAKKKKACiiigAooooAKKKKACrv9kX3/ADw/8fX/ABqlXbVz4itKnax7OU5dSxnP7RtWtt538n2OW/si+/54f+Pr/jR/ZF9/zw/8fX/GuppsjiONmPYVjTr1ak1CCu27L1Z608gwkIuUpSsvNf5GNplnPBOu6PGGO85HAwcfrW3UUCFIhn7zfMfrUta5rWVTEckH7sFyrztu/m7v5ndlWEWGw6Wt5a69L9PkrfMKKKK809IKKKKACiiigAooooAKKKKACiiigAooooAKgn+aSKP1OT9BU9QJ891I3ZRtFellnuTniP5It/N+7H7m0/kceN96MaX8zS+S1f4K3zJ6xPEP/Lt/wL+lbdYniH/l2/4F/SuTDfxUc+c/7jP5fmjEooor1D4QKKKKACiiigAooooAKKKKACiiigAooooAKKKKACiiigAooooAKKKKACiiigAooooAKKKKACiiigAooooAKKKKACiiigAooooAKKKKACiiigAooooAKKKKACiiigAooooAKKKKACiiigAooooAKKKKACiiigAooooAKKKKACiiigAooooAKKKKACiiigAooooAKKKKACiiigAooooAKKKKACiiigAooooAKKKKACiiigArtq4mu2rixn2fmfUcN/8AL3/t39QqCb95IkXb7zfSp6gg+dnlP8RwPoK1y/8AdKeLf2Fp/ilovu1l/wBuntYv9440P5nr/hWr+/RfMnooorzDtCiiigAooooAKKKKACiiigAooooAKKKKACiiigBGIVSx6AZqK2BEIY9WO40XJPlbB1chalAAAA6CvSf7rL/OpL8Ir9XJ/wDgJx/xMX5QX4y/yS/EWsTxD/y7f8C/pW3WJ4h/5dv+Bf0rkw38VHPnP+4z+X5oxKKKK9Q+ECiiigAooooAKKKKACiiigAooooAKKKKACiiigAooooAKKKKACiiigAooooAKKKKACiiigAooooAKKKKACiiigAooooAKKKKACiiigAooooAKKKKACiiigAooooAKKKKACiiigAooooAKKKKACiiigAooooAKKKKACiiigAooooAKKKKACiiigAooooAKKKKACiiigAooooAKKKKACiiigAooooAKKKKACiiigAooooAK7auJrtq4sZ9n5n1HDf/AC9/7d/UiuGIj2r95ztFSIoRAo6AYqEfvLon+GMY/E1PWuM/c0KeG6/FL1lsvlGz9Wz2sP8AvKs63T4V6Lf73f7kFFFFeYdoUUUUAFFFFABRRRQAUUUUAFFFFABRRRQAUUUUAQN892o7IM/jU9QW/wAxkk/vNgfQVPXpZn7lSOH/AOfcVH57y/8AJmzjwPvQlV/nbfy2X4JBWJ4h/wCXb/gX9K26xPEP/Lt/wL+lcmG/io585/3Gfy/NGJRRRXqHwgUUUUAFFFFABRRRQAUUUUAFFFFABRRRQAUUUUAFFFFABRRRQAUUUUAFFFFABRRRQAUUUUAFFFFABRRRQAUUUUAFFFFABRRRQAUUUUAFFFFABRRRQAUUUUAFFFFABRRRQAUUUUAFFFFABRRRQAUUUUAFFFFABRRRQAUUUUAFFFFABRRRQAUUUUAFFFFABRRRQAUUUUAFFFFABRRRQAUUUUAFFFFABRRRQAUUUUAFFFFABXaSOI42Y9hXF11837yVIu33m+lKFCNavCM/hV3L/CtX+Gi8z38mqunSrOPxPlS9XdIdAhSIZ+83zH61LRRXmYmvLEVpVpbydz6yjSVKnGnHZKwUUUVgaBRRRQAUUUUAFFFFABRRRQAUUUUAFFFFABUcz7IXbvjipKgn+aSKP1OT9BXdltKNTFQ5/hXvP0irv8EcuNm4UJcu70Xq9F+LJIk2RKvoKfRRXLVqyq1JVJ7ybb+ZvTgqcFCOy0CsTxD/AMu3/Av6Vt1ieIf+Xb/gX9KvDfxUednP+4z+X5oxKKKK9Q+ECiiigAooooAKKKKACiiigAooooAKKKKACiiigAooooAKKKKACiiigAooooAKKKKACiiigAooooAKKKKACiiigAooooAKKKKACiiigAooooAKKKKACiiigAooooAKKKKACiiigAooooAKKKKACiiigAooooAKKKKACiiigAooooAKKKKACiiigAooooAKKKKACiiigAooooAKKKKACiiigAooooAKKKKACt7TtOtJ7CKWWLc7ZydxHc+9YNdRpH/ILh/4F/6Ea5sVJxgmn1PayKlTq4iUakU1yvdX6oP7Isf+eH/j7f40f2RY/wDPD/x9v8avUVw+1n3Z9X9Rwv8Az7j9yKP9kWP/ADw/8fb/ABqeD52eU/xHA+gp1wxEe1fvOdoqRVCIFHQDFegpSpYFyb96o7L/AAxs397t9zOeFCl9aUacUlBXdlbV3S+5X+9C0UUV5Z6QUUUUAFFFFABRRRQAUUUUAFFFFABRRRQAUUUUAFZ19NJFFcTxNtaMKqnGe4zWgxCqWPQDNZt8CNFlY9WIY/8AfQr1cCvZ4erVfXlgvm7v8I2+Z5WZybXJF7KUvuVl+Lv8jJ/te+/57/8Aji/4Uf2vff8APf8A8cX/AAqlRV+yh2R8f9exX/PyX3su/wBr33/Pf/xxf8KhuLye62+c+7bnHAGM/SoKKFCKd0iJ4qvUjyzm2vNsKKKKswCiiigAooooAKKKKACiiigAooooAKKKKACiiigAooooAKKKKACiiigAooooAKKKKACiiigAooooAKKKKACiiigAooooAKKKKACiiigAooooAKKKKACiiigAooooAKKKKACiiigAooooAKKKKACiiigAooooAKKKKACiiigAooooAKKKKACiiigAooooAKKKKACiiigAooooAKKKKACiiigAooooAKKKKACuo0j/AJBcP/Av/QjXL11Gkf8AILh/4F/6Ea5cX8C9T3uHv96l/hf5ovUUU2RxHGzHsK4adOVSahBXbdl6s+vnNQi5S2REP3l0T/DGMfianqK3QpEM/ebk/Wpa7cyqRdb2VN3jBcq87bv5u7+ZzYODVPnl8UtX89l8lZfIKKKK886wooooAKKKKACiiigAooooAKKKKACiiigAooooAhuSfK2Dq5C1X1YAaVKB0G3+Yqdvnu1HZBn8ag1f/kFzf8B/9CFetW/dUcPR/wC336ydl/5Kk/meTW9+GJq+Tivknf8AFtfI5eiiitT4YKKKKACiiigAooooAKKKKACiiigAooooAKKKKACiiigAooooAKKKKACiiigAooooAKKKKACiiigAooooAKKKKACiiigAooooAKKKKACiiigAooooAKKKKACiiigAooooAKKKKACiiigAooooAKKKKACiiigAooooAKKKKACiiigAooooAKKKKACiiigAooooAKKKKACiiigAooooAKKKKACiiigAooooAKKKKACiiigArqNI/wCQXD/wL/0I1y9dRpH/ACC4f+Bf+hGuXF/AvU97h7/epf4X+aL1QTfvJUi7feb6VPUEHzs8p/iOB9BVZf8AulPFP7C0/wAUtF92svkfSYv9440P5nr/AIVq/v0XzJ6KKK8w7QooooAKKKKACiiigAooooAKKKKACiiigAooooAKKKjmfZC7e1a0KMq1WNKG8mkvnoRVqKnCVSWyV/uGW/zGST+82B9BUGr/APILm/4D/wChCrcKhYUAIPHaqmr/APILm/4D/wChCuzG1VUx0nHZOy9I6L8Ejz3Bwy6Se7i2/Vpt/izl6KKK6j4MKKKKACiiigAooooAKKKKACiiigAooooAKKKKACiiigAooooAKKKKACiiigAooooAKKKKACiiigAooooAKKKKACiiigAooooAKKKKACiiigAooooAKKKKACiiigAooooAKKKKACiiigAooooAKKKKACiiigAooooAKKKKACiiigAooooAKKKKACiiigAooooAKKKKACiiigAooooAKKKKACiiigAooooAKKKKACiiigArqNI/5BcP/Av/AEI1y9dRpH/ILh/4F/6Ea5cX8C9T3uHv96l/hf5os3DER7V+852ipFUIgUdAMVCP3l0T/DGMfianqsZ+5oU8N1+KXrLZfKNn6tn0mH/eVZ1unwr0W/3u/wByCiiivMO0KKKKACirOn6fdapfR2VlF5txJnYm4LnAJPJIHQGtz/hAPE//AEDP/I8X/wAVVKLeyIlVhB2lJL5nNUV0v/CAeJ/+gZ/5Hi/+Ko/4QDxP/wBAz/yPF/8AFUckuxH1ij/OvvRzVFdL/wAIB4n/AOgZ/wCR4v8A4qj/AIQDxP8A9Az/AMjxf/FUckuwfWKP86+9HNUV0v8AwgHif/oGf+R4v/iqP+EA8T/9Az/yPF/8VRyS7B9Yo/zr70c1RXS/8IB4n/6Bn/keL/4qj/hAPE//AEDP/I8X/wAVRyS7B9Yo/wA6+9HNUV0v/CAeJ/8AoGf+R4v/AIqj/hAPE/8A0DP/ACPF/wDFUckuwfWKP86+9HNUEZGD0rpf+EA8T/8AQM/8jxf/ABVH/CAeJ/8AoGf+R4v/AIqmoyWqQe3o/wAy+9HJmJ4SWh5HdD/SqupyrLpU2OCNuQeo+YV23/CAeJ/+gZ/5Hi/+KqrffDjxPNbts0cPJxhftEQzz/vV61PEwxUlHGK0uk7a/wDby6rz+Jeex5WLjGlRmsNJWafu38vs9n5bPyPLqK6TVPA+u6XewW11Ym3kuP8AViWaMIT6b9239avf8Kp8a/8AQF/8mof/AIuujEUJ0GlPZ7NbNd0/68z42MJy2T+442iuy/4VT41/6Av/AJNQ/wDxdH/CqfGv/QF/8mof/i6w5l3K9jU/lf3HG0V2X/CqfGv/AEBf/JqH/wCLo/4VT41/6Av/AJNQ/wDxdHMu4exqfyv7jjaK7L/hVPjX/oC/+TUP/wAXXNatpN7oepzadqMHk3cO3zI96tjIDDlSR0IoTT2FKnOKvJWKVFFFMgKKKKACiiigAooooAKKKKACiiigAooooAKKKKACiiigAooooAKKKKACiiigAooooAKKKKACiiigAooooAKKKKACiiigAooooAKKKKACiiigAooooAKKKKACiiigAooooAKKKKACiiigAooooAKKKKACiiigAooooAKKKKACiiigAooooAKKKKACiiigAooooAKKKKACiiigAooooAKKKKACum0xxHo8bHsG/wDQjXM10WnfvLC2i7fMzfTcaqnQjWqRU/hWsv8ACk2/w0XmerlFV06s3H4nGy9W0kX4EKRDP3m5P1qWiivJxNeWIrSrT3k7n21GkqVONOOyVgooorA0CiiigDpfAH/I76d/20/9FtXt9eIeAP8Akd9O/wC2n/otq9vrqo/CeHmf8Zen6sKKKK1POCiiigAooooAKKKKACiiigAooooAKKKKAK1/p9pqlnJaXtuk8EgwyOMj6+x965Iw6z4J+a2E2raAvWEnNxar/sn+JR6fy6121FdmHxkqSdOS5oPeL29V2fmvxWhlOkpPmWj7lLS9WsdaskvNPuEnhbuvVT6EdQfY1drltU8KSRXz6v4cuF0/UjzJHj9xc+zr6+4/nzU+ieK4766Omanbtp2sIPmtpTxJ7xt0Yf5561pUwcZwdbCvmit19qPr3X95ad7ExqtPlqaP8H/XY6KiiivPNwr5n+K3/JS9X/7Y/wDolK+mK+Z/it/yUvV/+2P/AKJStaW5xY7+GvX/ADONooorc8oKKKKACiiigAooooAKKKKACiiigAooooAKKKKACiiigAooooAKKKKACiiigAooooAKKKKACiiigAooooAKKKKACiiigAooooAKKKKACiiigAooooAKKKKACiiigAooooAKKKKACiiigAooooAKKKKACiiigAooooAKKKKACiiigAooooAKKKKACiiigAooooAKKKKACiiigAooq7p+n/b/ADP3uzZj+HOc59/aplJRV2a0aM681Tpq7ZSorb/4R7/p6/8AIf8A9ej/AIR7/p6/8h//AF6y+s0u53/2Njv5PxX+ZiV1GlweTarnr0/z+NUf7FEDoxn3ncMLsxn9a17aEwQLGX3kEnOMdTmuqtVjTwLcXrUdv+3Y6v73b7md2UZfVp4xutG3Ku63e23lclooorwT60KKKKACiiigDpfAH/I76d/20/8ARbV7fXiHgD/kd9O/7af+i2r2+uqj8J4eZ/xl6fqwooorU84KKKKACiiigAooooAKKKKACiiigAooooAKKKKACszW9A0/X7UQX0OWU5imQ7ZIm9VbtWnRWlKrOlNTpuzXVEyipK0locXHrGreEZFt/EBa+0okLFqka5aP0Eqj/wBC/n27CCeG6gSe3lSWJxuR0bIYeoNOdEljaORFdGGGVhkEehFchP4e1Hw1cPfeFiJLZm3z6TK3yN6mM/wn26foK9C9DGb2hU+6Mv8A5F/+S+hj79LbWP4r/P8AP1Oxr5n+K3/JS9X/AO2P/olK+gNC8SWGvxOIC0V1FxPazDbLEfQj+tcX4r+Ef/CT+JbvWP7c+zfaNn7r7Jv27UVeu8Z+7np3rjlTnQqOFVWaIxEXWpr2eup4DRXsv/Chf+pl/wDJH/7ZR/woX/qZf/JH/wC2U/aROD6pW7fkeNUV7L/woX/qZf8AyR/+2V41VKSexnUpTp25kFFFFMzCiiigAooooAKKKKACiiigAooooAKKKKACiiigAooooAKKKKACiiigAooooAKKKKACiiigAooooAKKKKACiiigAooooAKKKKACiiigAooooAKKKKACiiigAooooAKKKKACiiigAooooAKKKKACiiigAooooAKKKKACiiigAooooAKKKKACiiigAooooAKKKKACtvw9/wAvP/Af61iVt+Hv+Xn/AID/AFrDE/wmepk3+/Q+f5M26KKbI4jjZj2FedTpyqTUIK7bsvVn3M5qEXKWyIh+8uif4Yxj8TU9RQIUiGfvHk/Wpa7cyqRdb2VN3jBcq87bv5u7+ZzYODVPnl8UtX89l8lZfIKKKK886wooooAKKKKAOl8Af8jvp3/bT/0W1e314h4A/wCR307/ALaf+i2r2+uqj8J4eZ/xl6fqwooorU84KKKKACiiigAooooAKKKKACiiigAooooAKKKKACiiigAooooAwdd8LWusSpewyvY6pF/qb2Dhh7MP4h7GqFj4outMu49L8VRJa3DfLDfJ/wAe9x+P8Lex/TiutqtfWFpqdnJaXsCTwSDDI4yP/rH3rvpYxOCo4lc0Ft/NH0fbyeno9TGVJp81PR/g/X/Ms0VxRg1nwV81qJtW0FesBObi1H+yf4lHp/Lk11Gl6tY61ZLeafcJPC3deqn0I6g+xqMRg3Tj7WD5oPqvya6PyfyuhwqqT5Xo+39bl2vjWvsqvjWsaXU48f8AZ+f6BRRRWx5wUUUUAFFFFABRRRQAUUUUAFFFFABRRRQAUUUUAFFFFABRRRQAUUUUAFFFFABRRRQAUUUUAFFFFABRRRQAUUUUAFFFFABRRRQAUUUUAFFFFABRRRQAUUUUAFFFFABRRRQAUUUUAFFFFABRRRQAUUUUAFFFFABRRRQAUUUUAFFFFABRRRQAUUUUAFFFFABRRRQAVt+Hv+Xn/gP9axK2/D3/AC8/8B/rWGJ/hM9TJv8AfofP8mbdQTfvJUi7feb6VPUEHzs8p/iOB9BSy/8AdKeLf2FZf4paL7leXyPrsX+8caH8z1/wrV/fovmT0UUV5h2hRRRQAUUUUAFFFFAHS+AP+R307/tp/wCi2r2+vEPAH/I76d/20/8ARbV7fXVR+E8PM/4y9P1YUUUVqecFFFFABRRRQAUUUUAFFFFABRRRQAUUUUAFFFFABRRRQAUUUUAFFFFABXL6p4VkS+bV/Dtwun6meZEx+5ufZ19fcfz5rqKK6MPiamHlzU3vut012a6oidOM1ZnO6L4qjvrv+y9Tt207WEHzW0p4k/2o26MP884zXyvX1vrWgafr9oIL6HJU5jlQ7ZIm9VbtXl7+BNB8L3RTxFov23THb5NTgllUx5PSVFbAHuB+fbvhSo4m8sMrT/k7/wCF9f8AC9e1zgxNOo7KT0XX/P8Az29DxiivpOD4YeBLqBJ7fSklhkG5HS8mIYeoO+pf+FU+Cv8AoC/+TU3/AMXXA6iTs0Z/UandHzPRX1Dp3wj8DT38ccmh7kbOR9rnHY/7db3/AApL4ef9C9/5O3H/AMcqoyUldGFWlKlLlkfIFFfX/wDwpL4ef9C9/wCTtx/8co/4Ul8PP+he/wDJ24/+OVRkfIFFewfHTwT4d8Hf2D/YGn/Y/tX2jzv30km7b5e377HGNzdPWvH6ACiiigAooooAKKKKACiiigAooooAKKKKACiiigAooooAKKKKACiiigAooooAKKKKACiiigAooooAKKKKACiiigAooooAKKKKACiiigAooooAKKKKACiiigAooooAKKKKACiiigAooooAKKKKACiiigAooooAKKKKACiiigAooooAKKKKACtvw9/y8/8AAf61iVt+Hv8Al5/4D/WsMT/CZ6mTf79D5/kzWuGIj2r95ztFSKoRAo6AYqEfvLon+GMY/E1PSxn7mhTw3X4pestl8o2fq2fXYf8AeVZ1unwr0W/3u/3IKKKK8w7QooooAKKKKACiiigDpfAH/I76d/20/wDRbV7fXiHgD/kd9O/7af8Aotq9vrqo/CeHmf8AGXp+rCiiitTzgooooAKKKKACiiigAooooAKKKKACiiigAooooAKKKKACiiigAooooAKKKKACmuiSIySKrIwwysMgj0NOopgcdP4e1Hw3cPfeFiHt2bfPpMrYjf1MZ/gPt0/ICtnQvEljr8TiAvFdRcT2kw2yxH3Hp71sVha74XtdYlS8hley1SL/AFN7Bw49m/vL7GvSWJp4pcuK0l0n1/7eXVefxLz2Of2cqetPbt/l2/L0Oq0j/kKQ/wDAv/QTXUV5T4d8V3Gj67bab4tSO0mYlYb9eLe44I6/wN7H9OK9WzkZFRPDVMPpPZ7Naprun/Vup5+LqKc012CiiiszlPn/APaa/wCZW/7e/wD2jXgFe/8A7TX/ADK3/b3/AO0a8AoAKKKKACiiigAooooAKKKKACiiigAooooAKKKKACiiigAooooAKKKKACiiigAooooAKKKKACiiigAooooAKKKKACiiigAooooAKKKKACiiigAooooAKKKKACiiigAooooAKKKKACiiigAooooAKKKKACiiigAooooAKKKKACiirukf8hSH/gX/AKCamUuWLZrQp+1qxp3tdpfeUqK7aiuT65/d/E+j/wBW/wDp7/5L/wAE4mtnQnEcd0x7Bf61u1BN+8lSLt95vpXRhJRxNVQqK0VrL/CtX+CsvMccpeBkq8al5bJW6vRdfO46BCkQz948n61LRRXBia8sRWlWnvJ3PoqNJUqcacdkrBRRRWBoFFFFABRRRQAUUUUAdL4A/wCR307/ALaf+i2r2+vEPAH/ACO+nf8AbT/0W1e311UfhPDzP+MvT9WFFFFannBRRRQAUUUUAFFFFABRRRQAUUUUAFFFFABRRRQAUUUUAFFFFABRRRQAUUUUAFFFFABRRRQA+LTLLWJBY6hbR3NrKGDxyDIPB/I+/UVmm18QfDr57AXGueGF+9ak7rqyX/YP8aD07e3Jq/RXdhcdKhF05Lmg909vVdn5r8jjxGE9tLmvY6TRNd03xFpqX+lXcdzbtxleqn0YdQfY1o15HqnhWRb5tX8PXC6fqZ5kXH7m59pF/qOf51LovipL27/svVLdtO1hB81tIflk/wBqNujD/POM10VKMZwdXDe9Fbr7UfXuvNfNI5FhbS5Zu3bTR/12OW/aa/5lb/t7/wDaNeAV9lUV5/tfI2+of3vw/wCCfGtFfZVFHtfIPqH978P+CfGtFdl8Vv8Akper/wDbH/0SlcbWqd1c4Jx5ZOPYKKKKZIUUUUAFFFFABRRRQAUUUUAFFFFABRRRQAUUUUAFFFFABRRRQAUUUUAFFFFABRRRQAUUUUAFFFFABRRRQAUUUUAFFFFABRRRQAUUUUAFFFFABRRRQAUUUUAFFFFABRRRQAUUUUAFFFFABRRRQAUUUUAFXdI/5CkP/Av/AEE1Sq7pH/IUh/4F/wCgmoq/A/Q6sD/vVP8AxL8zqaKKK8c/RQqCD52eU/xHA+gp1wxEe1fvOdoqRVCIFHQDFenD9xgZS+1Udl/hjq/vlb7mcUv3uKUekFf5vRfcr/ehaKKK8w7QooooAKKKKACiiigAooooA6XwB/yO+nf9tP8A0W1e314h4A/5HfTv+2n/AKLavb66qPwnh5n/ABl6fqwooorU84KKKKACiiigAooooAKKKKACiiigAooooAKKKKACiiigAooooAKKKKACiiigAooooAKKKKACiiigArN1rQdP1+0EF9DuKnMcqnbJE3qrdjWlRWlOrOlNTpuzXVEyipK0locYmrat4RdYNfL32k5Cx6nGuXj9BKo/9CH6546+C4huoEnt5UlhkG5HRshh7GnOiyIyOoZGGGVhkEehrkZ/D2oeHJ3vvCxDW7Nvn0mVsRv6mM/wN7dPyxXfejjPitCp32jL1/lf/kvpuY2nS21j+K/z/P1OworH0LxJY69G4gLw3cXE9pMNssR9x6e9bFcNWjUozcKis0bRkpK8XofM/wAVv+Sl6v8A9sf/AESlcbXZfFb/AJKXq/8A2x/9EpXG1tHZHh1v4kvVhRRRTMwooooAKKKKACiiigAooooAKKKKACiiigAooooAKKKKACiiigAooooAKKKKACiiigAooooAKKKKACiiigAooooAKKKKACiiigAooooAKKKKACiiigAooooAKKKKACiiigAooooAKKKKACiiigAooooAKu6R/wAhSH/gX/oJqlV3SP8AkKQ/8C/9BNRV+B+h1YH/AHqn/iX5nU0UU2RxHGzHsK8qnTlUmoQV23ZerP0Oc1CLlLZEQ/eXRP8ADGMfianqKBCkQz948n61LXbmVSLrezpu8YLlXy3fzd38zmwcGqfPP4pav57L5Ky+QUUUV551hRRRQAUUUUAFFFFABRRRQB0vgD/kd9O/7af+i2r2+vEPAH/I76d/20/9FtXt9dVH4Tw8z/jL0/VhRRRWp5wUUUUAFFFFABRRRQAUUUUAFFFFABRRRQAUUUUAFFFFABRRRQAUUUUAFFFFABRRRQAUUUUAFFFFABRRRQAUUUUAYWu+F7XWJEu4pHstUh/1N7Bw6+zf3l9jVCy8T3Wl3cel+Koktp2O2G/T/j3uPx/gb2P6cV1lV72xtdStJLS9gSeCQYZHGQf/AK/vXfSxicFRxC5oLbvH0fbyeno9TGVJ35qej/B+v+Z88/FDTrq4+IuqyxRbkbycHcOf3Ke9ch/ZF9/zw/8AH1/xrvPFunDQ/E95ZW7yzW0WwIJG3MoKKQM9wM4HsBWUjrIu5TkVjiYVaMfaU2pU9uZfk10fk9+jaOuhleFrv33KM3ra6+9aar+mcx/ZF9/zw/8AH1/xo/si+/54f+Pr/jXU0Vw/W59kdX+r2F/ml96/yOJooor0T44KKKKACiiigAooooAKKKKACiiigAooooAKKKKACiiigAooooAKKKKACiiigAooooAKKKKACiiigAooooAKKKKACiiigAooooAKKKKACiiigAooooAKKKKACiiigAooooAKKKKACiiigAooooAKu6R/yFIf+Bf+gmqVXdI/5CkP/Av/AEE1FX4H6HVgf96p/wCJfmdTUFwrsFCpuGckZxU9FcGDxLwtaNaMU2ujvb8Gn6a7n3+IoKvTdNtpPtb9U0Q+ZP8A8+//AI+KPMn/AOff/wAfFTUV0/XqH/QND76n/wAsMfqtX/n9L7of/IEPmT/8+/8A4+KPMn/59/8Ax8VNRR9eof8AQND76n/ywPqtX/n9L7of/IEPmT/8+/8A4+KPMn/59/8Ax8VNRR9eof8AQND76n/ywPqtX/n9L7of/IEPmT/8+/8A4+KPMn/59/8Ax8VNRR9eof8AQND76n/ywPqtX/n9L7of/IEPmT/8+/8A4+KPMn/59/8Ax8VNRR9eof8AQND76n/ywPqtX/n9L7of/IEPmT/8+/8A4+KPMn/59/8Ax8VNRR9eof8AQND76n/ywPqtX/n9L7of/IGr4Qu9Qt/FNnLZaZ9ruF37IPtCx7vkYH5jwMDJ/CvVP7f8Xf8AQk/+VWL/AArzvwB/yO+nf9tP/RbV7fXRRxtBx/3eH31P/kzxsxoVI1UnVk9P7vn2ijlP7f8AF3/Qk/8AlVi/wo/t/wAXf9CT/wCVWL/CurorX65R/wCgeH31P/kzg9lP+d/+S/5HKf2/4u/6En/yqxf4Uf2/4u/6En/yqxf4V1dFH1yj/wBA8Pvqf/Jh7Kf87/8AJf8AI5T+3/F3/Qk/+VWL/Cj+3/F3/Qk/+VWL/Curoo+uUf8AoHh99T/5MPZT/nf/AJL/AJHKf2/4u/6En/yqxf4Uf2/4u/6En/yqxf4V1dFH1yj/ANA8Pvqf/Jh7Kf8AO/8AyX/I5T+3/F3/AEJP/lVi/wAKP7f8Xf8AQk/+VWL/AArq6KPrlH/oHh99T/5MPZT/AJ3/AOS/5HKf2/4u/wChJ/8AKrF/hR/b/i7/AKEn/wAqsX+FdXRR9co/9A8Pvqf/ACYeyn/O/wDyX/I5T+3/ABd/0JP/AJVYv8KP7f8AF3/Qk/8AlVi/wrq6KPrlH/oHh99T/wCTD2U/53/5L/kcp/b/AIu/6En/AMqsX+FH9v8Ai7/oSf8Ayqxf4V1dFH1yj/0Dw++p/wDJh7Kf87/8l/yOU/t/xd/0JP8A5VYv8KP7f8Xf9CT/AOVWL/Curoo+uUf+geH31P8A5MPZT/nf/kv+Ryn9v+Lv+hJ/8qsX+FH9v+Lv+hJ/8qsX+FdXRR9co/8AQPD76n/yYeyn/O//ACX/ACOU/t/xd/0JP/lVi/wo/t/xd/0JP/lVi/wrq6KPrlH/AKB4ffU/+TD2U/53/wCS/wCRyn9v+Lv+hJ/8qsX+FH9v+Lv+hJ/8qsX+FdXRR9co/wDQPD76n/yYeyn/ADv/AMl/yOU/t/xd/wBCT/5VYv8ACj+3/F3/AEJP/lVi/wAK6uij65R/6B4ffU/+TD2U/wCd/wDkv+Ryn9v+Lv8AoSf/ACqxf4Uf2/4u/wChJ/8AKrF/hXV0UfXKP/QPD76n/wAmHsp/zv8A8l/yOU/t/wAXf9CT/wCVWL/Cj+3/ABd/0JP/AJVYv8K6uij65R/6B4ffU/8Akw9lP+d/+S/5HKf2/wCLv+hJ/wDKrF/hR/b/AIu/6En/AMqsX+FdXRR9co/9A8Pvqf8AyYeyn/O//Jf8jlP7f8Xf9CT/AOVWL/Cj+3/F3/Qk/wDlVi/wrq6KPrlH/oHh99T/AOTD2U/53/5L/kcp/b/i7/oSf/KrF/hR/b/i7/oSf/KrF/hXV0UfXKP/AEDw++p/8mHsp/zv/wAl/wAjwDxfd6hceKb2W90z7JcNs3wfaFk2/IoHzDg5GD+Nc+yzb98cOxu/zDBrsPH/APyO+o/9s/8A0Wtc1WVLN44ebdPDwV9HrUaa8052fzR70cA61GCnVlsmvh09Hy3X3jY2Zl+dNp+uadRRXk1Jqc3JRUb9Fey+9t/iepCLjFJu/m/+BY4miiivXPzIKKKKACiiigAooooAKKKKACiiigAooooAKKKKACiiigAooooAKKKKACiiigAooooAKKKKACiiigAooooAKKKKACiiigAooooAKKKKACiiigAooooAKKKKACiiigAooooAKKKKACiiigAooooAKns7j7LdJNt3bc8ZxnIxUFFJpNWZUJypyU47rU2/+Eh/6df/ACJ/9aj/AISH/p1/8if/AFqxKKx+rUux6X9s47+f8F/kbf8AwkP/AE6/+RP/AK1H/CQ/9Ov/AJE/+tWJRR9Wpdg/tnHfz/gv8jb/AOEh/wCnX/yJ/wDWo/4SH/p1/wDIn/1qxKKPq1LsH9s47+f8F/kbf/CQ/wDTr/5E/wDrUf8ACQ/9Ov8A5E/+tWJRR9Wpdg/tnHfz/gv8jb/4SH/p1/8AIn/1qP8AhIf+nX/yJ/8AWrEoo+rUuwf2zjv5/wAF/kbf/CQ/9Ov/AJE/+tR/wkP/AE6/+RP/AK1YlFH1al2D+2cd/P8Agv8AI2/+Eh/6df8AyJ/9aj/hIf8Ap1/8if8A1qxKKPq1LsH9s47+f8F/kdb4f8b/ANha3b6l/Z3n+Tu/d+dtzlSvXafX0ruP+F9f9S1/5Pf/AGuvGqKuNGEdEjCrmGJqvmnK79F/key/8L6/6lr/AMnv/tdH/C+v+pa/8nv/ALXXjVFP2cTL63W7/key/wDC+v8AqWv/ACe/+10f8L6/6lr/AMnv/tdeNUUeziH1ut3/ACPZf+F9f9S1/wCT3/2uj/hfX/Utf+T3/wBrrxqij2cQ+t1u/wCR7L/wvr/qWv8Aye/+10f8L6/6lr/ye/8AtdeNUUeziH1ut3/I9l/4X1/1LX/k9/8Aa6P+F9f9S1/5Pf8A2uvGqKPZxD63W7/key/8L6/6lr/ye/8AtdH/AAvr/qWv/J7/AO1141RR7OIfW63f8j2X/hfX/Utf+T3/ANro/wCF9f8AUtf+T3/2uvGqKPZxD63W7/key/8AC+v+pa/8nv8A7XR/wvr/AKlr/wAnv/tdeNUUeziH1ut3/I9l/wCF9f8AUtf+T3/2uj/hfX/Utf8Ak9/9rrxqij2cQ+t1u/5Hsv8Awvr/AKlr/wAnv/tdH/C+v+pa/wDJ7/7XXjVFHs4h9brd/wAj2X/hfX/Utf8Ak9/9ro/4X1/1LX/k9/8Aa68aoo9nEPrdbv8Akey/8L6/6lr/AMnv/tdH/C+v+pa/8nv/ALXXjVFHs4h9brd/yPZf+F9f9S1/5Pf/AGuj/hfX/Utf+T3/ANrrxqij2cQ+t1u/5Hsv/C+v+pa/8nv/ALXR/wAL6/6lr/ye/wDtdeNUUeziH1ut3/I9l/4X1/1LX/k9/wDa6P8AhfX/AFLX/k9/9rrxqij2cQ+t1u/5Hsv/AAvr/qWv/J7/AO10f8L6/wCpa/8AJ7/7XXjVFHs4h9brd/yPZf8AhfX/AFLX/k9/9ro/4X1/1LX/AJPf/a68aoo9nEPrdbv+R7L/AML6/wCpa/8AJ7/7XR/wvr/qWv8Aye/+1141RR7OIfW63f8AI63xB43/ALd1u41L+zvI87b+787djCheu0enpWb/AMJD/wBOv/kT/wCtWJRUPD03rY6o5xjYpRU9F5L/ACNv/hIf+nX/AMif/Wo/4SH/AKdf/In/ANasSil9Wpdiv7Zx38/4L/IKKKK3PLCiiigAooooAKKKKACiiigAooooAKKKKACiiigAooooAKKKKACiiigAooooAKKKKACiiigAooooAKKKKACiiigAooooAKKKKACiiigAooooAKKKKACiiigAooooAKKKKACiiigAooooAKKKKACiiigAooooAKKKKACiiigAooooAKKKKACiiigAooooAKKKKACiiigAooooAKKKKACiiigAooooAKKKKACiiigAooooAKKKKACiiigAooooAKKKKACiiigAooooAKKKKACiiigAooooAKKKKACiiigAooooAKKKKACiiigAooooAKKKKACiiigAooooAKKKKACiiigAooooAKKKKACiiigAooooAKKKKACiiigAooooAKKKKACiiigAooooAKKKKACiiigAooooAKKKKACiiigAooooAKKKKACiiigAooooAKKKKACiiigAooooAKKKKACiiigAooooAKKKKACiiigAooooAKKKKACiiigAooooAKKKKACiiigAooooAKKKKACiiigAooooAKKKKACiiigAooooAKKKKACiiigAooooAKKKKACiiigAooooAKKKKACiiigAooooAKKKKACiiigAooooAKKKKACiiigAooooAKKKKACiiigAooooAKKKKACiiigAooooAKKKKACiiigAooooAKKKKACiiigAooooAKKKKACiiigAooooAKKKKACiiigAooooAKKKKACiiigAooooAKKKKACiiigAooooAKKKKACiiigAooooAKKKKACiiigAooooAKKKKACiiigAooooAKKKKACiiigAooooAKKKKACiiigAooooAKKKKACiiigAooooAKKKKACiiigAooooAKKKKACiiigAooooAKKKKACiiigAooooAKKKKACiiigAooooAKKKKACiiigAooooAKKKKACiiigAooooAKKKKACiiigAooooAKKKKACiiigAooooAKKKKACiiigAooooAKKKKACiiigAooooAKKKKACiiigAooooAKKKKACiiigAooooAKKKKACiiigAooooAKKKKACiiigAooooAKKKKACiiigAooooAKKKKACiiigAooooAKKKKACiiigAooooAKKKKACiiigAooooAKKKKACiiigAooooAKKKKACiiigAooooAKKKKACiiigAooooAKKKKACiiigAooooAKKKKACiiigAooooAKKKKACiiigAooooAKKKKACiiigAooooAKKKKACiiigAooooAKKKKACiiigAooooAKKKKACiiigAooooAKKKKACiiigAooooAKKKKACiiigAooooAKKKKACiiigAooooAKKKKACiiigAooooAKKKKACiiigAooooAKKKKACiiigAooooAKKKKACiiigAooooAKKKKACiiigAooooAKKKKACiiigAooooAKKKKACiiigAooooAKKKKACiiigAooooAKKKKACiiigAooooAKKKKACiiigAooooAKKKKACiiigAooooAKKKKACiiigAooooAKKKKACiiigAooooAKKKKACiiigAooooAKKKKACiiigAooooAKKKKACiiigAooooAKKKKACiiigAooooAKKKKACiiigAooooAKKKKACiiigAooooAKKKKACiiigAooooAKKKKACiiigAooooAKKKKACiiigAooooAKKKKACiiigAooooAKKKKACiiigAooooAKKKKACiiigAooooAKKKKACiiigAooooAKKKKACiiigAooooAKKKKACiiigAooooAKKKKACiiigAooooAKKKKACiiigAooooAKKKKACiiigAooooAKKKKACiiigAooooAKKKKACiiigAooooAKKKKACiiigAooooAKKKKACiiigAooooAKKKKACiiigAooooAKKKKACiiigAooooAKKKKACiiigAooooAKKKKACiiigAooooAKKKKACiiigAooooAKKKKACiiigAooooAKKKKACiiigAooooAKKKKACiiigAooooAKKKKACiiigAooooAKKKKACiiigAooooAKKKKACiiigAooooAKKKKACiiigAooooAKKKKACiiigAooooAKKKKACiiigAooooAKKKKACiiigAooooAKKKKACiiigAooooAKKKKACiiigAooooAKKKKACiiigAooooAKKKKACiiigAooooAKKKKACiiigAooooAKKKKACiiigAooooAKKKKACiiigAooooAKKKKACiiigAooooAKKKKACiiigAooooAKKKKACiiigAooooAKKKKACiiigAooooAKKKKACiiigAooooAKKKKACiiigAooooAKKKKACiiigAooooAKKKKACiiigAooooAKKKKACiiigAooooAKKKKACiiigAooooAKKKKACiiigAooooAKKKKACiiigAooooAKKKKACiiigAooooAKKKKACiiigAooooAKKKKACiiigAooooAKKKKACiiigAooooAKKKKACiiigAooooAKKKKACiiigAooooAKKKKACiiigAooooAKKKKACiiigAooooAKKKKACiiigAooooAKKKKACiiigAooooAKKKKACiiigAooooAKKKKACiiigAooooAKKKKACiiigAooooAKKKKACiiigAooooAKKKKACiiigAooooAKKKKACiiigAooooAKKKKACiiigAooooAKKKKACiiigAooooAKKKKACiiigAooooAKKKKACiiigAooooAKKKKACiiigAooooAKKKKACiiigAooooAKKKKACiiigAooooAKKKKACiiigAooooAKKKKACiiigAooooAKKKKACiiigAooooAKKKKACiiigAooooAKKKKACiiigAooooAKKKKACiiigAooooAKKKKACiiigAooooAKKKKACiiigAooooAKKKKACiiigAooooAKKKKACiiigAooooAKKKKACiiigAooooAKKKKACiiigAooooAKKKKACiiigAooooAKKKKACiiigAooooAKKKKACiiigAooooAKKKKACiiigAooooAKKKKACiiigAooooAKKKKACiiigAooooAKKKKACiiigAooooAKKKKACiiigAooooAKKKKACiiigAooooAKKKKACiiigAooooAKKKKACiiigAooooAKKKKACiiigAooooAKKKKACiiigAooooAKKKKACiiigAooooAKKKKACiiigAooooAKKKKACiiigAooooAKKKKACiiigAooooAKKKKACiiigAooooAKKKKACiiigAooooAKKKKACiiigAooooAKKKKACiiigAooooAKKKKACiiigAooooAKKKKACiiigAooooAKKKKACiiigAooooAKKKKACiiigAooooAKKKKACiiigAooooAKKKKACiiigAooooAKKKKACiiigAooooAKKKKACiiigAooooAKKKKACiiigAooooAKKKKACiiigAooooAKKKKACiiigAooooAKKKKACiiigAooooAKKKKACiiigAooooAKKKKACiiigAooooAKKKKACiiigAooooAKKKKACiiigAooooAKKKKACiiigAooooAKKKKACiiigAooooAKKKKACiiigAooooAKKKKACiiigAooooAKKKKACiiigAooooAKKKKACiiigAooooAKKKKACiiigAooooAKKKKACiiigAooooAKKKKACiiigAooooAKKKKACiiigAooooAKKKKACiiigAooooAKKKKACiiigAooooAKKKKACiiigAooooAKKKKACiiigAooooAKKKKACiiigAooooAKKKKACiiigAooooAKKKKACiiigAooooAKKKKACiiigAooooAKKKKACiiigAooooAKKKKACiiigAooooAKKKKACiiigAooooAKKKKACiiigAooooAKKKKACiiigAooooAKKKKACiiigAooooAKKKKACiiigAooooAKKKKACiiigAooooAKKKKACiiigAooooAKKKKACiiigAooooAKKKKACiiigAooooAKKKKACiiigAooooAKKKKACiiigAooooAKKKKACiiigAooooAKKKKACiiigAooooAKKKKACiiigAooooAKKKKACiiigAooooAKKKKACiiigAooooAKKKKACiiigAooooAKKKKACiiigAooooAKKKKACiiigAooooAKKKKACiiigAooooAKKKKACiiigAooooAKKKKACiiigAooooAKKKKACiiigAooooAKKKKACiiigAooooAKKKKACiiigAooooAKKKKACiiigAooooAKKKKACiiigAooooAKKKKACiiigAooooAKKKKACiiigAooooAKKKKACiiigAooooAKKKKACiiigAooooAKKKKACiiigAooooAKKKKACiiigAooooAKKKKACiiigAooooAKKKKACiiigAooooAKKKKACiiigAooooAKKKKACiiigAooooAKKKKACiiigAooooAKKKKACiiigAooooAKKKKACiiigAooooAKKKKACiiigAooooAKKKKACiiigAooooAKKKKACiiigAooooAKKKKACiiigAooooAKKKKACiiigAooooAKKKKACiiigAooooAKKKKACiiigAooooAKKKKACiiigAooooAKKKKACiiigAooooAKKKKACiiigAooooAKKKKACiiigAooooAKKKKACiiigAooooAKKKKACiiigAooooAKKKKACiiigAooooAKKKKACiiigAooooAKKKKACiiigAooooAKKKKACiiigAooooAKKKKACiiigAooooAKKKKACiiigAooooAKKKKACiiigAooooAKKKKACiiigAooooAKKKKACiiigAooooAKKKKACiiigAooooAKKKKACiiigAooooAKKKKACiiigAooooAKKKKACiiigAooooAKKKKACiiigAooooAKKKKACiiigAooooAKKKKACiiigAooooAKKKKACiiigAooooAKKKKACiiigAooooAKKKKACiiigAooooAKKKKACiiigAooooAKKKKACiiigAooooAKKKKACiiigAooooAKKKKACiiigAooooAKKKKACiiigAooooAKKKKACiiigAooooAKKKKACiiigAooooAKKKKACiiigAooooAKKKKACiiigAooooAKKKKACiiigAooooAKKKKACiiigAooooAKKKKACiiigAooooAKKKKACiiigAooooAKKKKACiiigAooooAKKKKACiiigAooooAKKKKACiiigAooooAKKKKACiiigAooooAKKKKACiiigAooooAKKKKACiiigAooooAKKKKACiiigAooooAKKKKACiiigAooooAKKKKACiiigAooooAKKKKACiiigAooooAKKKKACiiigAooooAKKKKACiiigAooooAKKKKACiiigAooooAKKKKACiiigAooooAKKKKACiiigAooooAKKKKACiiigAooooAKKKKACiiigAooooAKKKKACiiigAooooAKKKKACiiigAooooAKKKKACiiigAooooAKKKKACiiigAooooAKKKKACiiigAooooAKKKKACiiigAooooAKKKKACiiigAooooAKKKKACiiigAooooAKKKKACiiigAooooAKKKKACiiigAooooAKKKKACiiigAooooAKKKKACiiigAooooAKKKKACiiigAooooAKKKKACiiigAooooAKKKKACiiigAooooAKKKKACiiigAooooAKKKKACiiigAooooAKKKKACiiigAooooAKKKKACiiigAooooAKKKKACiiigAooooAKKKKACiiigAooooAKKKKACiiigAooooAKKKKACiiigAooooAKKKKACiiigAooooAKKKKACiiigAooooAKKKKACiiigAooooAKKKKACiiigAooooAKKKKACiiigAooooAKKKKACiiigAooooAKKKKACiiigAooooAKKKKACiiigAooooAKKKKACiiigAooooAKKKKACiiigAooooAKKKKACiiigAooooAKKKKACiiigAooooAKKKKACiiigAooooAKKKKACiiigAooooAKKKKACiiigAooooAKKKKACiiigAooooAKKKKACiiigAooooAKKKKACiiigAooooAKKKKACiiigAooooAKKKKACiiigAooooAKKKKACiiigAooooAKKKKACiiigAooooAKKKKACiiigAooooAKKKKACiiigAooooAKKKKACiiigAooooAKKKKACiiigAooooAKKKKACiiigAooooAKKKKACiiigAooooAKKKKACiiigAooooAKKKKACiiigAooooAKKKKACiiigAooooAKKKKACiiigAooooAKKKKACiiigAooooAKKKKACiiigAooooAKKKKACiiigAooooAKKKKACiiigAooooAKKKKACiiigAooooAKKKKACiiigAooooAKKKKACiiigAooooAKKKKACiiigAooooAKKKKACiiigAooooAKKKKACiiigAooooAKKKKACiiigAooooAKKKKACiiigAooooAKKKKACiiigAooooAKKKKACiiigAooooAKKKKACiiigAooooAKKKKACiiigAooooAKKKKACiiigAooooAKKKKACiiigAooooAKKKKACiiigAooooAKKKKACiiigAooooAKKKKACiiigAooooAKKKKACiiigAooooAKKKKACiiigAooooAKKKKACiiigAooooAKKKKACiiigAooooAKKKKACiiigAooooAKKKKACiiigAooooAKKKKACiiigAooooAKKKKACiiigAooooAKKKKACiiigAooooAKKKKACiiigAooooAKKKKACiiigAooooAKKKKACiiigAooooAKKKKACiiigAooooAKKKKACiiigAooooAKKKKACiiigAooooAKKKKACiiigAooooAKKKKACiiigAooooAKKKKACiiigAooooAKKKKACiiigAooooAKKKKACiiigAooooAKKKKACiiigAooooAKKKKACiiigAooooAKKKKACiiigAooooAKKKKACiiigAooooAKKKKACiiigAooooAKKKKACiiigAooooAKKKKACiiigAooooAKKKKACiiigAooooAKKKKACiiigAooooAKKKKACiiigAooooAKKKKACiiigAooooAKKKKACiiigAooooAKKKKACiiigAooooAKKKKACiiigAooooAKKKKACiiigAooooAKKKKACiiigAooooAKKKKACiiigAooooAKKKKACiiigAooooAKKKKACiiigAooooAKKKKACiiigAooooAKKKKACiiigAooooAKKKKACiiigAooooAKKKKACiiigAooooAKKKKACiiigAooooAKKKKACiiigAooooAKKKKACiiigAooooAKKKKACiiigAooooAKKKKACiiigAooooAKKKKACiiigAooooAKKKKACiiigAooooAKKKKACiiigAooooAKKKKACiiigAooooAKKKKACiiigAooooAKKKKACiiigAooooAKKKKACiiigAooooAKKKKACiiigAooooAKKKKACiiigAooooAKKKKACiiigAooooAKKKKACiiigAooooAKKKKACiiigAooooAKKKKACiiigAooooAKKKKACiiigAooooAKKKKACiiigAooooAKKKKACiiigAooooAKKKKACiiigAooooAKKKKACiiigAooooAKKKKACiiigAooooAKKKKACiiigAooooAKKKKACiiigAooooAKKKKACiiigAooooAKKKKACiiigAooooAKKKKACiiigAooooAKKKKACiiigAooooAKKKKACiiigAooooAKKKKACiiigAooooAKKKKACiiigAooooAKKKKACiiigAooooAKKKKACiiigAooooAKKKKACiiigAooooAKKKKACiiigAooooAKKKKACiiigAooooAKKKKACiiigAooooAKKKKACiiigAooooAKKKKACiiigAooooAKKKKACiiigAooooAKKKKACiiigAooooAKKKKACiiigAooooAKKKKACiiigAooooAKKKKACiiigAooooAKKKKACiiigAooooAKKKKACiiigAooooAKKKKACiiigAooooAKKKKACiiigAooooAKKKKACiiigAooooAKKKKACiiigAooooAKKKKACiiigAooooAKKKKACiiigAooooAKKKKACiiigAooooAKKKKACiiigAooooAKKKKACiiigAooooAKKKKACiiigAooooAKKKKACiiigAooooAKKKKACiiigAooooAKKKKACiiigAooooAKKKKACiiigAooooAKKKKACiiigAooooAKKKKACiiigAooooAKKKKACiiigAooooAKKKKACiiigAooooAKKKKACiiigAooooAKKKKACiiigAooooAKKKKACiiigAooooAKKKKACiiigAooooAKKKKACiiigAooooAKKKKACiiigAooooAKKKKACiiigAooooAKKKKACiiigAooooAKKKKACiiigAooooAKKKKACiiigAooooAKKKKACiiigAooooAKKKKACiiigAooooAKKKKACiiigAooooAKKKKACiiigAooooAKKKKACiiigAooooAKKKKACiiigAooooAKKKKACiiigAooooAKKKKACiiigAooooAKKKKACiiigAooooAKKKKACiiigAooooAKKKKACiiigAooooAKKKKACiiigAooooAKKKKACiiigAooooAKKKKACiiigAooooAKKKKACiiigAooooAKKKKACiiigAooooAKKKKACiiigAooooAKKKKACiiigAooooAKKKKACiiigAooooAKKKKACiiigAooooAKKKKACiiigAooooAKKKKACiiigAooooAKKKKACiiigAooooAKKKKACiiigAooooAKKKKACiiigAooooAKKKKACiiigAooooAKKKKACiiigAooooAKKKKACiiigAooooAKKKKACiiigAooooAKKKKACiiigAooooAKKKKACiiigAooooAKKKKACiiigAooooAKKKKACiiigAooooAKKKKACiiigAooooAKKKKACiiigAooooAKKKKACiiigAooooA//Z;" parent="1" vertex="1">
          <mxGeometry x="10" y="-1060" width="970" height="970" as="geometry" />
        </mxCell>
        <mxCell id="0u3PnH_AoCxucKV_yEJA-2" value="" style="rounded=0;whiteSpace=wrap;html=1;fillColor=#e1d5e7;strokeColor=#9673a6;opacity=50;" parent="1" vertex="1">
          <mxGeometry x="70" y="-870" width="270" height="90" as="geometry" />
        </mxCell>
        <mxCell id="0u3PnH_AoCxucKV_yEJA-4" value="" style="shape=image;verticalLabelPosition=bottom;labelBackgroundColor=default;verticalAlign=top;aspect=fixed;imageAspect=0;image=data:image/jpeg,/9j/4AAQSkZJRgABAQEBLAEsAAD/2wBDAAgGBgcGBQgHBwcJCQgKDBQNDAsLDBkSEw8UHRofHh0aHBwgJC4nICIsIxwcKDcpLDAxNDQ0Hyc5PTgyPC4zNDL/2wBDAQkJCQwLDBgNDRgyIRwhMjIyMjIyMjIyMjIyMjIyMjIyMjIyMjIyMjIyMjIyMjIyMjIyMjIyMjIyMjIyMjIyMjL/wAARCAOEA4QDASIAAhEBAxEB/8QAHwAAAQUBAQEBAQEAAAAAAAAAAAECAwQFBgcICQoL/8QAtRAAAgEDAwIEAwUFBAQAAAF9AQIDAAQRBRIhMUEGE1FhByJxFDKBkaEII0KxwRVS0fAkM2JyggkKFhcYGRolJicoKSo0NTY3ODk6Q0RFRkdISUpTVFVWV1hZWmNkZWZnaGlqc3R1dnd4eXqDhIWGh4iJipKTlJWWl5iZmqKjpKWmp6ipqrKztLW2t7i5usLDxMXGx8jJytLT1NXW19jZ2uHi4+Tl5ufo6erx8vP09fb3+Pn6/8QAHwEAAwEBAQEBAQEBAQAAAAAAAAECAwQFBgcICQoL/8QAtREAAgECBAQDBAcFBAQAAQJ3AAECAxEEBSExBhJBUQdhcRMiMoEIFEKRobHBCSMzUvAVYnLRChYkNOEl8RcYGRomJygpKjU2Nzg5OkNERUZHSElKU1RVVldYWVpjZGVmZ2hpanN0dXZ3eHl6goOEhYaHiImKkpOUlZaXmJmaoqOkpaanqKmqsrO0tba3uLm6wsPExcbHyMnK0tPU1dbX2Nna4uPk5ebn6Onq8vP09fb3+Pn6/9oADAMBAAIRAxEAPwD5/ooooAKKKKACiiigAooooAKKKKACiiigAooooAKKKKACiiigAooooAKKKKACiiigAooooAKKKKACiiigAooooAKKKKACiiigAooooAKKKKACiiigAooooAKKKKACiiigAooooAKKKKACiiigAooooAKKKKACiiigAooooAKKKKACiiigAooooAKKKKACiiigAooooAKKKKACiiigAooooAKKKKACiiigAooooAKKKKACiiigAooooAKKKKACiiigAooooAKKKKACiiigAooooAKKKKACiiigAooooAKKKKACiiigAooooAKKKKACiiigAooooAKKKKACiiigAooooAKKKKACiiigAooooAKKKKACiiigAooooAKKKKACiiigAooooAKKKKACiiigAooooAKKKKACiiigAooooAKKKKACiiigAooooAKKKKACiiigAooooAKKKKACiiigAooooAKKKKACiiigAooooAKKKKACiiigAooooAKKKKACiiigAooooAKKKKACiiigAooooAKKKKACiiigAooooAKKKKACiiigAooooAKKKKACiiigAooooAKKKKACiiigAooooAKKKKACiiigAooooAKKKKACiiigAooooAKKKKACiiigAooooAKKKKACiiigAooooAKKKKACiiigAooooAKKKKACiiigAooooAKKKKACiiigAooooAKKKKACiiigAooooAKKKKACiiigAooooAKKKKACiiigAooooAKKKKACiiigAooooAKKKKACiiigAooooAKKKKACiiigAooooAKKKKACiiigAooooAKKKKACiiigAooooAKKKKACiiigAooooAKKKKACiiigAooooAKKKKACiiigAooooAKKKKACiiigAooooAKKKKACiiigAooooAKKKKACiiigAooooAKKKKACiiigAooooAKKKKACiiigAooooAKKKKACiiigAooooAKKKKACiiigAooooAKKKKACiiigAooooAKKKKACiiigAooooAKKKKACiiigAooooAKKKKACiiigAooooAKKKKACiiigAooooAKKKKACiiigAooooAKKKKACiiigAooooAKKKKACiiigAooooAKKKKACiiigAooooAKKKKACiiigAooooAKKKKACiiigAooooAKKKKACiiigAooooAKKKKACiiigAooooAKKKKACiiigAooooAKKKKACiiigAooooAKKKKACiiigAooooAKKKKACiiigAooooAKKKKACiiigAooooAKKKKACiiigAooooAKKKKACiiigAooooAKKKKACiiigAooooAKKKKACiiigAooooAKKKKACiiigAooooAKKKKACiiigAooooAKKKKACiiigAooooAKKKKACiiigAooooAKKKKACiiigAooooAKKKKACiiigAooooAKKKKACiiigAooooAKKKKACiiigAooooAKKKKACiiigAooooAKKKKACiiigAooooAKKKKACiiigAooooAKKKKACiiigAooooAKKKKACiiigAooooAKKKKACiiigAooooAKKKKACiiigAooooAKKKKACiiigAooooAKKKKACiiigAooooAKKKKACiiigAooooAKKKKACiiigAooooAKKKKACiiigAooooAKKKKACiiigAooooAKKKKACiiigAooooAKKKKACiiigAooooAKKKKACiiigAooooAKKKKACiiigAooooAKKKKACiiigAooooAKKKKACiiigAooooAKKKKACiiigAooooAKKKKACiiigAooooAKKKKACiiigAooooAKKKKACiiigAooooAKKKKACiiigAooooAKKKKACiiigAooooAKKKKACiiigAooooAKKKKACiiigAooooAKKKKACiiigAooooAKKKKACiiigAooooAKKKKACiiigAooooAKKKKACiiigAooooAKKKKACiiigAooooAKKKKACiiigAooooAKKKKACiiigAooooAKKKKACiiigAooooAKKKKACiiigAooooAKKKKACiiigAooooAKKKKACiiigAooooAKKKKACiiigAooooAKKKKACiiigAooooAKKKKACiiigAooooAKKKKACiiigAooooAKKKKACiiigAooooAKKKKACiiigAooooAKKKKACiiigAooooAKKKKACiiigAooooAKKKKACiiigAooooAKKKKACiiigAooooAKKKKACiiigAooooAKKKKACiiigAooooAKKKKACiiigAooooAKKKKACiiigAooooAKKKKACiiigAooooAKKKKACiiigAooooAKKKKACiiigAooooAKKKKACiiigAooooAKKKKACiiigAooooAKKKKACiiigAooooAKKKKACiiigAooooAKKKKACiiigAooooAKKKKACiiigAooooAKKKKACiiigAooooAKKKKACiiigAooooAKKKKACiiigAooooAKKKKACiiigAooooAKKKKACiiigAooooAKKKKACiiigAooooAKKKKACiiigAooooAKKKKACiiigAooooAKKKKACiiigAooooAKKKKACiiigAooooAKKKKACiiigAooooAKKKKACiiigAooooAKKKKACiiigAooooAKKKKACiiigAooooAKKKKACiiigAooooAKKKKACiiigAooooAKKKKACiiigAooooAKKKKACiiigAooooAKKKKACiiigAooooAKKKKACiiigAooooAKKKKACiiigCWC3kuXKxjkVZ/sm6/u/of8ACrGm/ub23h/ibLP/AN8nAroK6cXVoYKUaM6fNK13q1Zvpp2Vr+dz2csyqONpOq5ta228kcv/AGTdf3f0P+FH9k3X939D/hXUUVy/2nh/+fH/AJMz0f8AVuH/AD8f3I5f+ybr+7+h/wAKP7Juv7v6H/Cuooo/tPD/APPj/wAmYf6tw/5+P7kcv/ZN1/d/Q/4Uf2Tdf3f0P+FdRRR/aeH/AOfH/kzD/VuH/Px/cjl/7Juv7v6H/Cj+ybr+7+h/wrqKKP7Tw/8Az4/8mYf6tw/5+P7kcv8A2Tdf3f0P+FH9k3X939D/AIV1FFH9p4f/AJ8f+TMP9W4f8/H9yOX/ALJuv7v6H/Cj+ybr+7+h/wAK6iij+08P/wA+P/JmH+rcP+fj+5HL/wBk3X939D/hR/ZN1/d/Q/4V1FFH9p4f/nx/5Mw/1bh/z8f3I5f+ybr+7+h/wo/sm6/u/of8K6iij+08P/z4/wDJmH+rcP8An4/uRy/9k3X939D/AIUf2Tdf3f0P+FdRRR/aeH/58f8AkzD/AFbh/wA/H9yOX/sm6/u/of8ACj+ybr+7+h/wrqKKP7Tw/wDz4/8AJmH+rcP+fj+5HL/2Tdf3f0P+FH9k3X939D/hXUUUf2nh/wDnx/5Mw/1bh/z8f3I5f+ybr+7+h/wo/sm6/u/of8K6iij+08P/AM+P/JmH+rcP+fj+5HL/ANk3X939D/hR/ZN1/d/Q/wCFdRRR/aeH/wCfH/kzD/VuH/Px/cjl/wCybr+7+h/wo/sm6/u/of8ACuooo/tPD/8APj/yZh/q3D/n4/uRyzaXcqpJUcfUf0o/si+/54f+Pr/jXUEBgQRkGoYyYX8pj8p+4f6Vp7WGKpt4eHLOOtrt3XVrzW7XVa9DOWR0aM17WTcXpfRWfno9H37+pzv9kX3/ADw/8fX/ABo/si+/54f+Pr/jXU0V5f1ufZHX/q9hf5pfev8AI5C4s57Xb5ybd2ccg5x9Kgrb8Q/8u3/Av6ViV20pucFJnzWYYeOGxMqUNlbf0TCiiitDjCiiigAooooAKKKKACiiigAooooAKKKKACiiigAooooAKKKKACiiigAooooAKKKKACiiigAooooAKKKKACiiigAooooAKKKKACiiigAooooAKKKKACiiigAooooAKKKKACiiigAooooAKKKKACiiigAooooAKKKKACiiigAooooAKKKKACiiigAooooAKKKKACiiigAqa2QNIXb7iDcahqxL+5gWH+Jvmf8AoK7sDCKk6817sNfV/ZXze/kmTLsupY0xzJrEbnqS3/oJrpq5bSP+QpD/AMC/9BNdTXhY6cp1eaTu3/mz7Ph3TCy/xP8AJBRRRXGe8FFFFABRRRQAUUUUAFFFFABRRRQAUUUUAFFFFABRRRQAUUUUAFFFFABRRRQAUUUUAFFFFABTZIxIhVv/ANVOorSnUnSmqkHZrVMmcIzi4SV0yKGQ5Mcn31/UetS1HNGXAZTh15U0RSCRc4ww4YehrvxVOFen9boq38yX2X3X92XTs9O1+ShOVKf1eo7/AMr7rt6rr3WvcyPEP/Lt/wAC/pWJW34h/wCXb/gX9KxKeG/hI+Rzn/fp/L8kFFFFbnlhRRRQAUUUUAFFFFABRRRQAUUUUAFFFFABRRRQAUUUUAFFFFABRRRQAUUUUAFFFFABRRRQAUUUUAFFFFABRRRQAUUUUAFFFFABRRRQAUUUUAFFFFABRRRQAUUUUAFFFFABRRRQAUUUUAFFFFABRRRQAUUUUAFFFFABRRRQAUUUUAFFFFABRRRQAUUUUAFFFFABW3/wj3/T1/5D/wDr1iV21cuJqShblZ72SYKhifae2je1ravz7GEdFEMkZM+8luF2Yz+tSSaCZJGdrrkn/nn/APXrSj/ezNL/AAr8q/41PXTjq9TD04YRPVay/wAT6f8Abq09XI9LC5Tg6rlVcPdbtHV7Lrv1f4WMuz0f7LdJN5+7bnjZjORj1rUooryJzlN3kexh8LSw0eSkrLfr+oUUUVBuFFFFABRRRQAUUUUAFFFFABRRRQAUUUUAFFFFABRRRQAUUUUAFFFFABRRRQAUUUUAFFFFABRRRQAVDKhRvOjHI+8PUVNRXThcTLD1OdK6ejT2ae6f9aPVaoxr0VWhyvR7p9n3/r0KF9YjUliZZtgXP8Oc5x7+1U/+Ee/6ev8AyH/9etNv9Hk3D/VMeR6H1qx1rpxUJUFGdF3py+F/mn5rr8ns0ebHBYbFTk8RD94t9X8mtdn/AMDdGJ/wj3/T1/5D/wDr0f8ACPf9PX/kP/69bdFcn1mr3NP7GwP8n4v/ADOQvLf7LdPDu3bcc4xnIzUFXdX/AOQpN/wH/wBBFUq9GDbimz4vFQjTrzhHZNr8QoooqzAKKKKACiiigAooooAKKKKACiiigAooooAKKKKACiiigAooooAKKKKACiiigAooooAKKKKACiiigAooooAKKKKACiiigAooooAKKKKACiiigAooooAKKKKACiiigAooooAKKKKACiiigAooooAKKKKACiiigAooooAKKKKACiiigAooooAKKKKACuxuHIQIv3nOBXHV18f72Zpf4V+Vf8a0pQipfWaivGnr6v7K+b1fkme5k8m41KMHrOy9Frd/dt5tEqII0CjoBTqKK8Oc5VJOc3dvVn2MYqEVGKskFFFFQUFFFFABRRRQAUUUUAFFFFABRRRQAUUUUAFFFFABRRRQAUUUUAFFFFABRRRQAUUUUAFFFFABRRRQAUUUUAFFFFACEBgQRkGoYyYX8pj8p+4f6VPTZIxIhVv/ANVd2DxEIJ0a38OW/dPpJea/FXRy4ijKVqlP447ea6p+T/B6jqKhhkOTHJ99f1HrU1Y4nDzw9R05/JrZp7NeTNaNaNaHPH/gp9U/Q5bV/wDkKTf8B/8AQRVKrur/APIUm/4D/wCgiqVehS+Beh+f47/eqn+J/mFFFFWcoUUUUAFFFFABRRRQAUUUUAFFFFABRRRQAUUUUAFFFFABRRRQAUUUUAFFFFABRRRQAUUUUAFFFFABRRRQAUUUUAFFFFABRRRQAUUUUAFFFFABRRRQAUUUUAFFFFABRRRQAUUUUAFFFFABRRRQAUUUUAFFFFABRRRQAUUUUAFFFFABRRRQAUUUUATWyBpC7fcQbjXXIgjQKOgFcnL+5gWH+Jvmf+grrqvN37CnTwq3Wsv8T2X/AG6tPVs+k4ainKrProl6ahRRRXgn1YUUUUAFFFFABRRRQAUUUUAFFFFABRRRQAUUUUAFFFFABRRRQAUUUUAFFFFABRRRQAUUUUAFFFFABRRRQAUUUUAFFFFABRRRQBHNGXAZTh15U0RSCRemGHDD0NSVDKhRvOjHI+8PUV6mGnHFU1hKrs18DfR/yvyfTs9dmzhrRdCf1iC0+0v1XmvxXoiObTrSeVpZYtzt1O4j+tR/2RY/88P/AB9v8auI4dQynINOrgk6tOThJtNaW7Gn1XC1Pf5Iu+t7LXzKP9kWP/PD/wAfb/Gj+yLH/nh/4+3+NXqKXtZ92H1HC/8APuP3I4miiivXPzoKKKKACiiigAooooAKKKKACiiigAooooAKKKKACiiigAooooAKKKKACiiigAooooAKKKKACiiigAooooAKKKKACiiigAooooAKKKKACiiigAooooAKKKKACiiigAooooAKKKKACiiigAooooAKKKKACiiigAooooAKKKKACiiigAqa2QNIXb7iDcahqxL+5gWH+Jvmf+gruwMIqTrzXuw19X9lfN7+SZMuy6kMjmSRnPUmu0ria7avGx85TkpSd27n1PDentf+3f1CiiivPPqAooooAKKKKACiiigAooooAKKKKACiiigAooooAKKKKACiiigAooooAKKKKACiiigAooooAKKKKACiiigAooooAKKKKACiiigAooooArt/o8m4f6pj8w9D61Y60hAYEEZBqGMmF/KY/IfuH+les/8Ab6XN/wAvYLX+9Fdf8UVv3Wu6d+Bf7JO3/LuT/wDAW+no+nZ6dVaeiiivJO84miiivbPzAKKKKACiiigAooooAKKKKACiiigAooooAKKKKACiiigAooooAKKKKACiiigAooooAKKKKACiiigAooooAKKKKACiiigAooooAKKKKACiiigAooooAKKKKACiiigAooooAKKKKACiiigAooooAKKKKACiiigAooooAKKKKACuo0j/AJBcP/Av/QjXL11Gkf8AILh/4F/6Ea5cX8C9T3uHv96l/hf5os3DkIEX7znAp6II0CjoBUUf72Zpf4V+Vf8AGp6vHf7PShg1uvel/ifT/t1aerkfR4X99OWIez0j6Lr83r6WCiiivLO4KKKKACiiigAooooAKKKKACiiigAooooAKKKKACiiigAooooAKKKKACiiigAooooAKKKKACiiigAooooAKKKKACiiigAooooAKKKKACiiigApskYkQq3/AOqnUVpTqTpTVSDs1qmTOEZxcJK6ZDDIcmOT769/UetTVHNGXAZTh15U0RSCRemGHDD0Nd+Kpwr0/rdFW/mS+y+6/uy6dnp2vyUJypT+r1Hf+V9129V17rXucbRRRXQfnoUUUUAFFFFABRRRQAUUUUAFFFFABRRRQAUUUUAFFFFABRRRQAUUUUAFFFFABRRRQAUUUUAFFFFABRRRQAUUUUAFFFFABRRRQAUUUUAFFFFABRRRQAUUUUAFFFFABRRRQAUUUUAFFFFABRRRQAUUUUAFFFFABRRRQAUUUUAFdHYORpECL95ywH/fRrnK6XSoWW2jL/wggD6nP9a3owjG+IqK8aetu7+yvm9/JM9PKud13ShvJWv2V1d/dt52L6II0CjoBTqKK8Cc5VJOc3dvVn3UYqEVGKskFFFFQUFFFFABRRRQAUUUUAFFFFABRRRQAUUUUAFFFFABRRRQAUUUUAFFFFABRRRQAUUUUAFFFFABRRRQAUUUUAFFFFABRRRQAUUUUAFFFFABRRRQAUUUUAFQyoyN50Y5H3h6ipqK6cLiZYepzpXWzT2ae6f9aPVamNeiq0OV6PdPs+/9ehxbo0blWGCKbWlJp901vmaLa6cBtwOR6Hmov7Ivj/yw/wDH1/xr2sVTp07VKcrwls/zT811+T2Z+exwuIbcfZu68mUqKu/2Rff88P8Ax9f8aZNp13BE0ssW1F6ncD/WuRVIPRNFSweIinKVOSS8mVaKKKs5gooooAKKKKACiiigAooooAKKKKACiiigAooooAKKKKACiiigAooooAKKKKACiiigAooooAKKKKACiiigAooooAKKKKACiiigAooooAKKKKACiiigAooooAKKKKACiiigAooooAKKKKACiiigAooooAKKKKAJrZA0hdvuINxrpdMcyafG56kt/wChGucl/cwLD/E3zP8A0FdBpH/ILh/4F/6Ea2zb9zQhhVuneX+Jrb/t1aerZ7fDmuKlL+6/zReooor54+0CiiigAooooAKKKKACiiigAooooAKKKKACiiigAooooAKKKKACiiigAooooAKKKKACiiigAooooAKKKKACiiigAooooAKKKKACiiigAooooAKKKKACiiigAooooAQgMCCMg1DGTC/lMfkP3D/Sp6bJGJEKt/8AqrvweJhBOjW1py37p9JLzX4q6OXEUZStUpfHHbzXVPyf4PUdVHV/+QXN/wAB/wDQhViGQ5MUn317+o9ar6v/AMgub/gP/oQrOrhp4fEKnPys1s09mvJmVetGtgqk4/yy9U7O6focvRRRXoH5+FFFFABRRRQAUUUUAFFFFABRRRQAUUUUAFFFFABRRRQAUUUUAFFFFABRRRQAUUUUAFFFFABRRRQAUUUUAFFFFABRRRQAUUUUAFFFFABRRRQAUUUUAFFFFABRRRQAUUUUAFFFFABRRRQAUUUUAFFFXdP0/wC3+Z+92bMfw5znPv7VMpKKuzWjRnXmqdNXbKVTWyBpC7fcQbjWr/wj3/T1/wCQ/wD69LFpHmQNGs+F3cts+9+tdWBq0U5Yiesaevq/sr5vfyTOqplWMUlDk1l5rpv1MWRzJIznqTXTaR/yC4f+Bf8AoRql/wAI9/09f+Q//r1qWdv9ltUh3btuecYzk5ry8XiFW1vdt3Z7eTZfiMNXcqsbK1t13XZk9FFFcB9KFFFFABRRRQAUUUUAFFFFABRRRQAUUUUAFFFFABRRRQAUUUUAFFFFABRRRQAUUUUAFFFFABRRRQAUUUUAFFFFABRRRQAUUUUAFFFFABRRRQAUUUUAFFFFABRRRQAUUUUARzRlwGU4deVNUtSkEmkzcYYbQw9DuFaNUbuAXhaFCRkYdh09q9nA/wC1UnRqf8u05KX8vdPyl0/vbbs8jMYOnGUqW81ytd21ZNea6+W+yOXorb/4R7/p6/8AIf8A9ej/AIR7/p6/8h//AF6y+s0u583/AGNjv5PxX+ZiUVt/8I9/09f+Q/8A69UdQ0/7B5f73fvz/DjGMe/vVRrQk7JmVbLMVQg6lSFkvNf5lKiiitTgCiiigAooooAKKKKACiiigAooooAKKKKACiiigAooooAKKKKACiiigAooooAKKKKACiiigAooooAKKKKACiiigAooooAKKKKACiiigAooooAKKKKACiiigAooooAKKKKACiiigArb8Pf8vP8AwH+tYlbfh7/l5/4D/WsMT/CZ6mTf79D5/kzWuHIQIv3nOBT0QRoFHQCoo/3szS/wr8q/41PRjv8AZ6UMGt170v8AE+n/AG6tPVyPrcL++nLEPZ6R9F1+b19LBRRRXlncFFFFABRRRQAUUUUAFFFFABRRRQAUUUUAFFFFABRRRQAUUUUAFFFFABRRRQAUUUUAFFFFABRRRQAUUUUAFFFFABRRRQAUUUUAFFFFABRRRQAUUUUAFFFFABRRRQAUUUUAFFFQSSNI5iiP+83pXVhcLPETstEtW3sl3f8AV29FqY168aMbvVvZdW+y/rTdhJI0jmKI/wC83pUscaxoFUcURxrGgVRxTq1xWKg4fV8PpTX3yfd/otkvO7edChJS9rV1m/uS7L9X1+5IooorgOoKxPEP/Lt/wL+lbdYniH/l2/4F/St8N/FR5ec/7jP5fmjEooor1D4QKKKKACiiigAooooAKKKKACiiigAooooAKKKKACiiigAooooAKKKKACiiigAooooAKKKKACiiigAooooAKKKKACiiigAooooAKKKKACiiigAooooAKKKKACiiigAooooAKKKKACtbRnIS4RfvOVA/Wsmt/RoVTfn/AFgAJ9s5/wAK6cPGMVLEVFeMNfV391fN7+SZ2ZfGc8VCnB2buvlZ3/DbzNVEEaBR0Ap1FFfPTnKpJzm7t6s/QYxUIqMVZIKKKKgoKKKKACiiigAooooAKKKKACiiigAooooAKKKKACiiigAooooAKKKKACiiigAooooAKKKKACiiigAooooAKKKKACiiigAooooAKKKKACiiigAooooAKKKKACiiigAooqCSRpHMUR/3m9K6sLhZ4idlolq29ku7/q7ei1Ma9eNGN3q3surfZf1puwkkaRzFEf8Aeb0qWONY0CqOKI41jQKo4p1bYrFQcPq+H0pr75Pu/wBFsl53byoUJKXtaus39yXZfq+v3JFFFVdRmkgsJZYm2uuMHGe4rhiuZpI3q1FSpyqS2Sb+4tUVy39r33/Pf/xxf8KP7Xvv+e//AI4v+FdH1SfdHi/6w4X+WX3L/M6msTxD/wAu3/Av6VR/te+/57/+OL/hUNxeT3W3zn3bc44Axn6VpSw8oTUmceYZzQxOGlSgnd23t3T7kFFFFdp80FFFFABRRRQAUUUUAFFFFABRRRQAUUUUAFFFFABRRRQAUUUUAFFFFABRRRQAUUUUAFFFFABRRRQAUUUUAFFFFABRRRQAUUUUAFFFFABRRRQAUUUUAFFFFABRRRQAUUUUAFFFFAE1sgaQu33EG41r6E5kkunPUlf61lS/uYFh/ib5n/oK0/D3/Lz/AMB/rXTmn7nDLCrday/xPp/26tPVs9HJNcdCXr+TNuiiivmz74KKKKACiiigAooooAKKKKACiiigAooooAKKKKACiiigAooooAKKKKACiiigAooooAKKKKACiiigAooooAKKKKACiiigAooooAKKKKACiiigAooooAKKKKACiiigAooqCSRpHMUR/wB5vSurC4WeInZaJatvZLu/6u3otTGvXjRjd6t7Lq32X9absJJGkcxRH/eb0qWONY0CqOKI41jQKo4p1bYrFQcPq+H0pr75Pu/0WyXndvKhQkpe1q6zf3Jdl+r6/ckUUUV551hVHV/+QXN/wH/0IVeqjq//ACC5v+A/+hCtKXxr1OXHf7rU/wAL/I5eiiivXPzoKKKKACiiigAooooAKKKKACiiigAooooAKKKKACiiigAooooAKKKKACiiigAooooAKKKKACiiigAooooAKKKKACiiigAooooAKKKKACiiigAooooAKKKKACiiigAooooAKKKKACiirukf8hSH/gX/AKCamUuWLZrQp+1qxp3tdpfeUqmtkDSF2+4g3GuwqCP97M0v8K/Kv+Na4DERvLETj7tNX9X9lfN7+SZ7dbIeWUaaqXcn26dXv0/No5KRzJIznqTWz4e/5ef+A/1rborza+MlWvzLV9T0cFkn1WvGrz3t0t5W7hRRRXGe8FFFFABRRRQAUUUUAFFFFABRRRQAUUUUAFFFFABRRRQAUUUUAFFFFABRRRQAUUUUAFFFFABRRRQAUUUUAFFFFABRRRQAUUUUAFFFFABRRRQAUUUUAFFFFABRRUEkjSOYoj/vN6V1YXCzxE7LRLVt7Jd3/V29FqY168aMbvVvZdW+y/rTdhJI0jmKI/7zelSxxrGgVRxRHGsaBVHFOrbFYqDh9Xw+lNffJ93+i2S87t5UKElL2tXWb+5Lsv1fX7kiiiivPOsKK4miu76n/e/A+Y/1k/6df+Tf8A7aqOr/APILm/4D/wChCuXopxwnLJO5lXz/ANrSlT9na6a37/IKKKK7D5wKKKKACiiigAooooAKKKKACiiigAooooAKKKKACiiigAooooAKKKKACiiigAooooAKKKKACiiigAooooAKKKKACiiigAooooAKKKKACiiigAooooAKKKKACiiigAooooAKKKKACrukf8hSH/gX/oJqlV3SP+QpD/wL/wBBNRV+B+h1YH/eqf8AiX5nSXDkIEX7znAp6II0CjoBUUf72Zpf4V+Vf8anrPHf7PShg1uvel/ifT/t1aerkfb4X99OWIez0j6Lr83r6WCiiivLO4KKKKACiiigAooooAKKKKACiiigAooooAKKKKACiiigAooooAKKKKACiiigAooooAKKKKACiiigAooooAKKKKACiiigAooooAKKKKACiiigAooooAKKKKACiioJJGkcxRH/AHm9K6sLhZ4idlolq29ku7/q7ei1Ma9eNGN3q3surfZf1puwkkaRzFEf95vSpY41jQKo4ojjWNAqjinVtisVBw+r4fSmvvk+7/RbJed28qFCSl7WrrN/cl2X6vr9yRRRRXnnWFFFFAHE0UUV7Z+YBRRRQAUUUUAFFFFABRRRQAUUUUAFFFFABRRRQAUUUUAFFFFABRRRQAUUUUAFFFFABRRRQAUUUUAFFFFABRRRQAUUUUAFFFFABRRRQAUUUUAFFFFABRRRQAUUUUAFFFFABRRRQAUUUUAFFFFABVrTs/bFIIBAPX3GP61Vq5paB9RiU9CG/wDQTW2HqU6VWNSqrxTu/Q0pQlOpGEN21Y6hECIFHQCnVFbuShRvvIcGpa8jG0qlLETjVd5X3731v89z9Ew04ToxlBWVtu3l8tgooorlNwooooAKKKKACiiigAooooAKKKKACiiigAooooAKKKKACiiigAooooAKKKKACiiigAooooAKKKKACiiigAooooAKKKKACiiigAooooAKKKKACiiigAooqCSRpHMUR/3m9K6sLhZ4idlolq29ku7/AKu3otTGvXjRjd6t7Lq32X9absJJGkcxRH/eb0qWONY0CqOKI41jQKo4p1bYrFQcPq+H0pr75Pu/0WyXndvKhQkpe1q6zf3Jdl+r6/ckUUUV551lWbUbSCVopZdrr1G0n+lR/wBr2P8Az3/8cb/CsTV/+QpN/wAB/wDQRVKu+GFhKKbbPlMTnuIpVp04xjZNrZ9H6nUf2vY/89//ABxv8KP7Xsf+e/8A443+FcvRVfVId2Y/6w4r+WP3P/MKKKK6jwQooooAKKKKACiiigAooooAKKKKACiiigAooooAKKKKACiiigAooooAKKKKACiiigAooooAKKKKACiiigAooooAKKKKACiiigAooooAKKKKACiiigAooooAKKKKACiiigAooooAKKKKACiiigAq7pH/ACFIf+Bf+gmqVXdI/wCQpD/wL/0E1FX4H6HVgf8Aeqf+JfmdFL+6mWX+Fvlb/Gp6a6CRCp6EUy3clCjfeQ4NZ1f9pwcav2qfuv8Awv4X8n7vpyn28P3OIcPsz1Xr1Xz3+8loooryzuCiiigAooooAKKKKACiiigAooooAKKKKACiiigAooooAKKKKACiiigAooooAKKKKACiiigAooooAKKKKACiiigAooooAKKKKACiiigAooooAKKKgkkaRzFEf95vSurC4WeInZaJatvZLu/6u3otTGvXjRjd6t7Lq32X9absJJGkcxRH/eb0qWONY0CqOKI41jQKo4p1bYrFQcPq+H0pr75Pu/0WyXndvKhQkpe1q6zf3Jdl+r6/ckUUUV551hRRRQBy2r/8hSb/AID/AOgiqVXdX/5Ck3/Af/QRVKvYpfAvQ/Osd/vVT/E/zCiiirOUKKKKACiiigAooooAKKKKACiiigAooooAKKKKACiiigAooooAKKKKACiiigAooooAKKKKACiiigAooooAKKKKACiiigAooooAKKKKACiiigAooooAKKKKACiiigAooooAKKKKACiiigAooooAKKKKACp7O4+y3STbd23PGcZyMVBRSaTVmVCcqclOO61Nv/hIf+nX/wAif/Woi1fzZmdYMNt+7v8AvfpWJTo3MciuOoNa4JUaNX3l7slaXo9/u3XmkdtXNcZUSvPZ3Wi3+42f+Eh/6df/ACJ/9arun6h9v8z91s2Y/iznOfb2rnblAsgdfuONwrV8Pf8ALz/wH+tcuOwUcM5Qtqv6v81qenleaYrEYqEKkrp36Ls/I26KKK8o+tCiiigAooooAKKKKACiiigAooooAKKKKACiiigAooooAKKKKACiiigAooooAKKKKACiiigAooooAKKKKACiiigAooooAKKKKACiioJJGkcxRH/eb0rqwuFniJ2WiWrb2S7v+rt6LUxr140Y3erey6t9l/Wm7CSRpHMUR/3m9KljjWNAqjiiONY0CqOKdW2KxUHD6vh9Ka++T7v9Fsl53byoUJKXtaus39yXZfq+v3JFFFFeedZR1DUPsHl/ut+/P8WMYx7e9Uv+Eh/6df8AyJ/9ajxD/wAu3/Av6ViV30aMJQTaPk8zzPFUMVOnTnZK3Rdl5G3/AMJD/wBOv/kT/wCtR/wkP/Tr/wCRP/rViUVr9Wpdjg/tnHfz/gv8ie8uPtV0823buxxnOMDFQUUVskkrI82c5VJOct3qFFFFMkKKKKACiiigAooooAKKKKACiiigAooooAKKKKACiiigAooooAKKKKACiiigAooooAKKKKACiiigAooooAKKKKACiiigAooooAKKKKACiiigAooooAKKKKACiiigAooooAKKKKACiiigAooooAKKKKACiiigAooooAsRfvoGh/iX5k/qK0/D3/Lz/wAB/rWNG5jkVx1Brf0dAslw6/ccKw/WunGfv8D7T7ULJ/4b+6/lt/4CejkumPgu9/yZq0UUV82ffBRRRQAUUUUAFFFFABRRRQAUUUUAFFFFABRRRQAUUUUAFFFFABRRRQAUUUUAFFFFABRRRQAUUUUAFFFFABRRRQAUUUUAFFFQSSNI5iiP+83pXVhcLPETstEtW3sl3f8AV29FqY168aMbvVvZdW+y/rTdhJI0jmKI/wC83pUscaxoFUcURxrGgVRxTq2xWKg4fV8PpTX3yfd/otkvO7eVChJS9rV1m/uS7L9X1+5IooorzzrCiiigDE8Q/wDLt/wL+lYlbfiH/l2/4F/SsSvUw38JHwmc/wC/T+X5IKKKK3PLCiiigAooooAKKKKACiiigAooooAKKKKACiiigAooooAKKKKACiiigAooooAKKKKACiiigAooooAKKKKACiiigAooooAKKKKACiiigAooooAKKKKACiiigAooooAKKKKACiiigAooooAKKKKACiiigAooooAKKKKACiiigAooooAK2NFmZN+fuKQD7Zz/AIVj1s6EgkS6U9CF/rWtGvGi71NYPSXo9/mt15pHbl9Oc8TFQdpateqTa+XfyN2iordyUKN95Dg1LXj4rDyw9aVKXT8ezXk1qj72hWVamqkev9W+WwUUUVzmoUUUUAFFFFABRRRQAUUUUAFFFFABRRRQAUUUUAFFFFABRRRQAUUUUAFFFFABRRRQAUUUUAFFFFABRRRQAUUVBJI0jmKI/wC83pXVhcLPETstEtW3sl3f9Xb0WpjXrxoxu9W9l1b7L+tN2EkjSOYoj/vN6VLHGsaBVHFEcaxoFUcU6tsVioOH1fD6U198n3f6LZLzu3lQoSUva1dZv7kuy/V9fuSKKKK886yrqM0kFhLLE211xg4z3FYH9r33/Pf/AMcX/CtvV/8AkFzf8B/9CFcvXfhYRlBtrqfKZ7ia1LERjTm0uVbNrqy7/a99/wA9/wDxxf8ACj+177/nv/44v+FUqK6fZQ7I8X69iv8An5L72T3F5PdbfOfdtzjgDGfpUFFFUkkrI55zlUlzTd35hRRRTJCiiigAooooAKKKKACiiigAooooAKKKKACiiigAooooAKKKKACiiigAooooAKKKKACiiigAooooAKKKKACiiigAooooAKKKKACiiigAooooAKKKKACiiigAooooAKKKKACiiigAooooAKKKKACiiigAooooAKKKKACiiigAooooAK2/D3/Lz/wH+tYlbfh7/l5/4D/WsMT/AAmepk3+/Q+f5M1Jf3Uyy/wt8rf41PTXQSIVPQimW7koUb7yHBoq/wC04ONX7VP3X/hfwv5P3fTlPrYfucQ4fZnqvXqvnv8AeS0UUV5Z3BRRRQAUUUUAFFFFABRRRQAUUUUAFFFFABRRRQAUUUUAFFFFABRRRQAUUUUAFFFFABRRRQAUUUUAFFFQSSNI5iiP+83pXVhcLPETstEtW3sl3f8AV29FqY168aMbvVvZdW+y/rTdhJI0jmKI/wC83pUscaxoFUcURxrGgVRxTq2xWKg4fV8PpTX3yfd/otkvO7eVChJS9rV1m/uS7L9X1+5IooorzzrCiiigCjq//ILm/wCA/wDoQrl66jV/+QXN/wAB/wDQhXL16OE+B+p8dxD/AL1H/CvzYUUUV1HghRRRQAUUUUAFFFFABRRRQAUUUUAFFFFABRRRQAUUUUAFFFFABRRRQAUUUUAFFFFABRRRQAUUUUAFFFFABRRRQAUUUUAFFFFABRRRQAUUUUAFFFFABRRRQAUUUUAFFFFABRRRQAUUUUAFFFFABRRRQAUUUUAFFFFABRRRQAUUUUAFFFFABRRRQAUUUUAFWIv30DQ/xL8yf1FV6dG5jkVx1BrqwdaNKr7/AML0fo9/u3XmkTJXQ2uo0j/kFw/8C/8AQjXO3KBZA6/ccbhXRaR/yC4f+Bf+hGuHM6MqDdOXR/f2fzWp7/DrviZP+6/zReoooryD7IKKKKACiiigAooooAKKKKACiiigAooooAKKKKACiiigAooooAKKKKACiiigAooooAKKKgkkaRzFEf8Aeb0rqwuFniJ2WiWrb2S7v+rt6LUxr140Y3erey6t9l/Wm7CSRpHMUR/3m9KljjWNAqjiiONY0CqOKdW2KxUHD6vh9Ka++T7v9Fsl53byoUJKXtaus39yXZfq+v3JFFFFeedYVxNdtXE13YP7XyPmOJP+XX/b36BRRRXafLhRRRQAUUUUAFFFFABRRRQAUUUUAFFFFABRRRQAUUUUAFFFFABRRRQAUUUUAFFFFABRRRQAUUUUAFFFFABRRRQAUUUUAFFFFABRRRQAUUUUAFFFFABRRRQAUUUUAFFFFABRRRQAUUUUAFFFFABRRRQAUUUUAFFFFABRRRQAUUUUAFFFFABRRRQAUUUUAFFFFABRRRQAUUUUAWIv30DQ/wAS/Mn9RXQaR/yC4f8AgX/oRrmY3MciuOoNdNYzqtmgSORl5IKrkckmuvE0Z47Cx9nrODs9tY62evbb0sevkVaFHFSc3ZOL/NF6ioftH/TGb/vmj7R/0xm/75ry/wCycZ/J+K/zPrP7Qw/834P/ACJqKh+0f9MZv++aPtH/AExm/wC+aP7Jxn8n4r/MP7Qw/wDN+D/yJqKh+0f9MZv++aPtH/TGb/vmj+ycZ/J+K/zD+0MP/N+D/wAiaioftH/TGb/vmj7R/wBMZv8Avmj+ycZ/J+K/zD+0MP8Azfg/8iaioftH/TGb/vmj7R/0xm/75o/snGfyfiv8w/tDD/zfg/8AImoqH7R/0xm/75o+0f8ATGb/AL5o/snGfyfiv8w/tDD/AM34P/ImoqH7R/0xm/75o+0f9MZv++aP7Jxn8n4r/MP7Qw/834P/ACJqKh+0f9MZv++aPtH/AExm/wC+aP7Jxn8n4r/MP7Qw/wDN+D/yJqKh+0f9MZv++aPtH/TGb/vmj+ycZ/J+K/zD+0MP/N+D/wAiaioftH/TGb/vmj7R/wBMZv8Avmj+ycZ/J+K/zD+0MP8Azfg/8iaioftH/TGb/vmj7R/0xm/75o/snGfyfiv8w/tDD/zfg/8AImoqH7R/0xm/75o+0f8ATGb/AL5o/snGfyfiv8w/tDD/AM34P/ImoqH7R/0xm/75prSSS/IiOmerMMYqo5Rib/vEox6ttWS++/yWr6ClmFG3uXk+iSeoskjSOYoj/vN6VLHGsaBVHFEcaxoFUcU6s8VioOH1fD6U198n3f6LZLzu3VChJS9rV1m/uS7L9X1+5IooqrNqNpBK0Usu116jaT/SuFRctEjepVp0lzVJJLzdi1RVH+17H/nv/wCON/hR/a9j/wA9/wDxxv8ACq9lPszH69hf+fkfvReria6j+17H/nv/AOON/hXL114SMo3uj53P69Kr7P2ck7X2d+wUUUV2HzgUUUUAFFFFABRRRQAUUUUAFFFFABRRRQAUUUUAFFFFABRRRQAUUUUAFFFFABRRRQAUUUUAFFFFABRRRQAUUUUAFFFFABRRRQAUUUUAFFFFABRRRQAUUUUAFFFFABRRRQAUUUUAFFFFABRRRQAUUUUAFFFFABRRRQAUUUUAFFFFABRRRQAUUUUAFFFFABRRRQAUUUUAFFFFABXUaR/yC4f+Bf8AoRrl66jSP+QXD/wL/wBCNcuL+Bep73D3+9S/wv8ANF6iiivOPsQooooAKKKKACiiigAooooAKKKKACiiigAooooAKKKKACiiigAooooAKKKKACiiigAooooAK5bV/wDkKTf8B/8AQRXU1y2r/wDIUm/4D/6CK6sJ8b9DweIf91j/AIl+TKVFFFeifHBRRRQAUUUUAFFFFABRRRQAUUUUAFFFFABRRRQAUUUUAFFFFABRRRQAUUUUAFFFFABRRRQAUUUUAFFFFABRRRQAUUUUAFFFFABRRRQAUUUUAFFFFABRRRQAUUUUAFFFFABRRRQAUUUUAFFFFABRRRQAUUUUAFFFFABRRRQAUUUUAFFFFABRRRQAUUUUAFFFFABRRRQAUUUUAFFFFABRRRQAV1Gkf8guH/gX/oRrl61LPWPstqkPkbtued+M5OfSufEQlONonrZNiqWGrudV2Vrde67HRUVif8JD/wBOv/kT/wCtR/wkP/Tr/wCRP/rVx/VqvY+l/tnA/wA/4P8AyNuisT/hIf8Ap1/8if8A1qP+Eh/6df8AyJ/9aj6tV7B/bOB/n/B/5G3RWJ/wkP8A06/+RP8A61H/AAkP/Tr/AORP/rUfVqvYP7ZwP8/4P/I26KxP+Eh/6df/ACJ/9aj/AISH/p1/8if/AFqPq1XsH9s4H+f8H/kbdFYn/CQ/9Ov/AJE/+tR/wkP/AE6/+RP/AK1H1ar2D+2cD/P+D/yNuisT/hIf+nX/AMif/Wo/4SH/AKdf/In/ANaj6tV7B/bOB/n/AAf+Rt0Vif8ACQ/9Ov8A5E/+tR/wkP8A06/+RP8A61H1ar2D+2cD/P8Ag/8AI26KxP8AhIf+nX/yJ/8AWo/4SH/p1/8AIn/1qPq1XsH9s4H+f8H/AJG3RWJ/wkP/AE6/+RP/AK1H/CQ/9Ov/AJE/+tR9Wq9g/tnA/wA/4P8AyNuisT/hIf8Ap1/8if8A1qP+Eh/6df8AyJ/9aj6tV7B/bOB/n/B/5G3RWJ/wkP8A06/+RP8A61H/AAkP/Tr/AORP/rUfVqvYP7ZwP8/4P/I26KxP+Eh/6df/ACJ/9aj/AISH/p1/8if/AFqPq1XsH9s4H+f8H/kbdFYn/CQ/9Ov/AJE/+tR/wkP/AE6/+RP/AK1H1ar2D+2cD/P+D/yNuisT/hIf+nX/AMif/Wo/4SH/AKdf/In/ANaj6tV7B/bOB/n/AAf+Rt1y2r/8hSb/AID/AOgir3/CQ/8ATr/5E/8ArVl3lx9qunm27d2OM5xgYrfD0pwleSPJznMMNiaChSld3vs+z7ogooortPmgooooAKKKKACiiigAooooAKKKKACiiigAooooAKKKKACiiigAooooAKKKKACiiigAooooAKKKKACiiigAooooAKKKKACiiigAooooAKKKKACiiigAooooAKKKKACiiigAooooAKKKKACiiigAooooAKKKKACiiigAooooAKKKKACiiigAooooAKKKKACiiigAooooAKKKKACiiigAooooAKKKKACiiigAooooAKKKKACiiigAooooAKKKKACiiigAooooAKKKKACiiigAooooAKKKKACiiigAooooAKKKKACiiigAooooAKKKKACiiigAooooAKKKKACiiigAooooAKKKKACiiigAooooAKKKKACiiigAooooAKKKKACiiigAooooAKKKKACiiigAooooAKKKKACiiigAooooAKKKKACiiigAooooAKKKKACiiigAooooAKKKKACiiigAooooAKKKKACiiigAooooAKKKKACiiigAooooAKKKKACiiigAooooAKKKKACiiigAooooAKKKKACiiigAooooAKKKKACiiigAooooAKKKKACiiigAooooAKKKKACiiigAooooAKKKKACiiigAooooAKKKKACiiigAooooAKKKKACiiigAooooAKKKKACiiigAooooAKKKKACiiigAooooAKKKKACiiigAooooAKKKKACiiigAooooAKKKKACiiigAooooAKKKKACiiigAooooAKKKKACiiigAooooAKKKKACiiigAooooAKKKKACiiigAooooAKKKKACiiigAooooAKKKKACiiigAooooAKKKKACiiigAooooAKKKKACiiigAooooAKKKKACiiigAooooAKKKKACiiigAooooAKKKKACiiigAooooAKKKKACiiigAooooAKKKKACiiigAooooAKKKKACiiigAooooAKKKKACiiigAooooAKKKKACiiigAooooAKKKKACiiigAooooAKKKKACiiigAooooAKKKKACiiigAooooAKKKKACiiigAooooAKKKKACiiigAooooAKKKKACiiigAooooAKKKKACiiigAooooAKKKKACiiigAooooAKKKKACiiigAooooAKKKKACiiigAooooAKKKKACiiigAooooAKKKKACiiigAooooAKKKKACiiigAooooAKKKKACiiigAooooAKKKKACiiigAooooAKKKKACiiigAooooAKKKKACiiigAooooAKKKKACiiigAooooAKKKKACiiigAooooAKKKKACiiigAooooAKKKKACiiigAooooAKKKKACiiigAooooAKKKKACiiigAooooAKKKKACiiigAooooAKKKKACiiigAooooAKKKKACiiigAooooAKKKKACiiigAooooAKKKKACiiigAooooAKKKKACiiigAooooAKKKKACiiigAooooAKKKKACiiigAooooAKKKKACiiigAooooAKKKKACiiigAooooAKKKKACiiigAooooAKKKKACiiigAooooAKKKKACiiigAooooAKKKKACiiigAooooAKKKKACiiigAooooAKKKKACiiigAooooAKKKKACiiigAooooAKKKKACiiigAooooAKKKKACiiigAooooAKKKKACiiigAooooAKKKKACiiigAooooAKKKKACiiigAooooAKKKKACiiigAooooAKKKKACiiigAooooAKKKKACiiigAooooAKKKKACiiigAooooAKKKKACiiigAooooAKKKKACiiigAooooAKKKKACiiigAooooAKKKKACiiigAooooAKKKKACiiigAooooAKKKKACiiigAooooAKKKKACiiigAooooAKKKKACiiigAooooAKKKKACiiigAooooAKKKKACiiigAooooAKKKKACiiigAooooAKKKKACiiigAooooAKKKKACiiigAooooAKKKKACiiigAooooAKKKKACiiigAooooAKKKKACiiigAooooAKKKKACiiigAooooAKKKKACiiigAooooAKKKKACiiigAooooAKKKKACiiigAooooAKKKKACiiigAooooAKKKKACiiigAooooAKKKKACiiigAooooAKKKKACiiigAooooAKKKKACiiigAooooAKKKKACiiigAooooAKKKKACiiigAooooAKKKKACiiigAooooAKKKKACiiigAooooAKKKKACiiigAooooAKKKKACiiigAooooAKKKKACiiigAooooAKKKKACiiigAooooAKKKKACiiigAooooAKKKKACiiigAooooAKKKKACiiigAooooAKKKKACiiigAooooAKKKKACiiigAooooAKKKKACiiigAooooAKKKKACiiigAooooAKKKKACiiigAooooAKKKKACiiigAooooAKKKKACiiigAooooAKKKKACiiigAooooAKKKKACiiigAooooAKKKKACiiigAooooAKKKKACiiigAooooAKKKKACiiigAooooAKKKKACiiigAooooAKKKKACiiigAooooAKKKKACiiigAooooAKKKKACiiigAooooAKKKKACiiigAooooAKKKKACiiigAooooAKKKKACiiigAooooAKKKKACiiigAooooAKKKKACiiigAooooAKKKKACiiigAooooAKKKKACiiigAooooAKKKKACiiigAooooAKKKKACiiigAooooAKKKKACiiigAooooAKKKKACiiigAooooAKKKKACiiigAooooAKKKKACiiigAooooAKKKKACiiigAooooAKKKKACiiigAooooAKKKKACiiigAooooAKKKKACiiigAooooAKKKKACiiigAooooAKKKKACiiigAooooAKKKKACiiigAooooAKKKKACiiigAooooAKKKKACiiigAooooAKKKKACiiigAooooAKKKKACiiigAooooAKKKKACiiigAooooAKKKKACiiigAooooAKKKKACiiigAooooAKKKKACiiigAooooAKKKKACiiigAooooAKKKKACiiigAooooAKKKKACiiigAooooAKKKKACiiigAooooAKKKKACiiigAooooAKKKKACiiigAooooAKKKKACiiigAooooAKKKKACiiigAooooAKKKKACiiigAooooAKKKKACiiigAooooAKKKKACiiigAooooAKKKKACiiigAooooAKKKKACiiigAooooAKKKKACiiigAooooAKKKKACiiigAooooAKKKKACiiigAooooAKKKKACiiigAooooAKKKKACiiigAooooAKKKKACiiigAooooAKKKKACiiigAooooAKKKKACiiigAooooAKKKKACiiigAooooAKKKKACiiigAooooAKKKKACiiigAooooAKKKKACiiigAooooAKKKKACiiigAooooAKKKKACiiigAooooAKKKKACiiigAooooAKKKKACiiigAooooAKKKKACiiigAooooAKKKKACiiigAooooAKKKKACiiigAooooAKKKKACiiigAooooAKKKKACiiigAooooAKKKKACiiigAooooAKKKKACiiigAooooAKKKKACiiigAooooAKKKKACiiigAooooAKKKKACiiigAooooAKKKKACiiigAooooAKKKKACiiigAooooAKKKKACiiigAooooAKKKKACiiigAooooAKKKKACiiigAooooAKKKKACiiigAooooAKKKKACiiigAooooAKKKKACiiigAooooAKKKKACiiigAooooAKKKKACiiigAooooAKKKKACiiigAooooAKKKKACiiigAooooAKKKKACiiigAooooAKKKKACiiigAooooAKKKKACiiigAooooAKKKKACiiigAooooAKKKKACiiigAooooAKKKKACiiigAooooAKKKKACiiigAooooAKKKKACiiigAooooAKKKKACiiigAooooAKKKKACiiigAooooAKKKKACiiigAooooAKKKKACiiigAooooAKKKKACiiigAooooAKKKKACiiigAooooAKKKKACiiigAooooAKKKKACiiigAooooAKKKKACiiigAooooAKKKKACiiigAooooAKKKKACiiigAooooAKKKKACiiigAooooAKKKKACiiigAooooAKKKKACiiigAooooAKKKKACiiigAooooAKKKKACiiigAooooAKKKKACiiigAooooAKKKKACiiigAooooAKKKKACiiigAooooAKKKKACiiigAooooAKKKKACiiigAooooAKKKKACiiigAooooAKKKKACiiigAooooAKKKKACiiigAooooAKKKKACiiigAooooAKKKKACiiigAooooAKKKKACiiigAooooAKKKKACiiigAooooAKKKKACiiigAooooAKKKKACiiigAooooAKKKKACiiigAooooAKKKKACiiigAooooAKKKKACiiigAooooAKKKKACiiigAooooAKKKKACiiigAooooAKKKKACiiigAooooAKKKKACiiigAooooAKKKKACiiigAooooAKKKKACiiigAooooAKKKKACiiigAooooAKKKKACiiigAooooAKKKKACiiigAooooAKKKKACiiigAooooAKKKKACiiigAooooAKKKKACiiigAooooAKKKKACiiigAooooAKKKKACiiigAooooAKKKKACiiigAooooAKKKKACiiigAooooAKKKKACiiigAooooAKKKKACiiigAooooAKKKKACiiigAooooAKKKKACiiigAooooAKKKKACiiigAooooAKKKKACiiigAooooAKKKKACiiigAooooAKKKKACiiigAooooAKKKKACiiigAooooAKKKKACiiigAooooAKKKKACiiigAooooAKKKKACiiigAooooAKKKKACiiigAooooAKKKKACiiigAooooAKKKKACiiigAooooAKKKKACiiigAooooAKKKKACiiigAooooAKKKKACiiigAooooAKKKKACiiigAooooAKKKKACiiigAooooAKKKKACiiigAooooAKKKKACiiigAooooAKKKKACiiigAooooAKKKKACiiigAooooAKKKKACiiigAooooAKKKKACiiigAooooAKKKKACiiigAooooAKKKKACiiigAooooAKKKKACiiigAooooAKKKKACiiigAooooAKKKKACiiigAooooAKKKKACiiigAooooAKKKKACiiigAooooAKKKKACiiigAooooAKKKKACiiigAooooAKKKKACiiigAooooAKKKKACiiigAooooAKKKKACiiigAooooAKKKKACiiigAooooAKKKKACiiigAooooAKKKKACiiigAooooAKKKKACiiigAooooAKKKKACiiigAooooAKKKKACiiigAooooAKKKKACiiigAooooAKKKKACiiigAooooAKKKKACiiigAooooAKKKKACiiigAooooAKKKKACiiigAooooAKKKKACiiigAooooAKKKKACiiigAooooAKKKKACiiigAooooAKKKKACiiigAooooAKKKKACiiigAooooAKKKKACiiigAooooAKKKKACiiigAooooAKKKKACiiigAooooAKKKKACiiigAooooAKKKKACiiigAooooAKKKKACiiigAooooAKKKKACiiigAooooAKKKKACiiigAooooAKKKKACiiigAooooAKKKKACiiigAooooAKKKKACiiigAooooAKKKKACiiigAooooAKKKKACiiigAooooAKKKKACiiigAooooAKKKKACiiigAooooAKKKKACiiigAooooAKKKKACiiigAooooAKKKKACiiigAooooAKKKKACiiigAooooAKKKKACiiigAooooAKKKKACiiigAooooAKKKKACiiigAooooAKKKKACiiigAooooAKKKKACiiigAooooAKKKKACiiigAooooAKKKKACiiigAooooAKKKKACiiigAooooAKKKKACiiigAooooAKKKKACiiigAooooAKKKKACiiigAooooAKKKKACiiigAooooAKKKKACiiigAooooAKKKKACiiigAooooAKKKKACiiigAooooAKKKKACiiigAooooAKKKKACiiigAooooAKKKKACiiigAooooAKKKKACiiigAooooAKKKKACiiigAooooAKKKKACiiigAooooAKKKKACiiigAooooAKKKKACiiigAooooAKKKKACiiigAooooAKKKKACiiigAooooAKKKKACiiigAooooAKKKKACiiigAooooAKKKKACiiigAooooAKKKKACiiigAooooAKKKKACiiigAooooAKKKKACiiigAooooAKKKKACiiigAooooAKKKKACiiigAooooAKKKKACiiigAooooAKKKKACiiigAooooAKKKKACiiigAooooAKKKKACiiigAooooAKKKKACiiigAooooAKKKKACiiigAooooAKKKKACiiigAooooAKKKKACiiigAooooAKKKKACiiigAooooAKKKKACiiigAooooAKKKKACiiigAooooAKKKKACiiigAooooAKKKKACiiigAooooAKKKKACiiigAooooAKKKKACiiigAooooAKKKKACiiigAooooAKKKKACiiigAooooAKKKKACiiigAooooAKKKKACiiigAooooAKKKKACiiigAooooAKKKKACiiigAooooAKKKKACiiigAooooAKKKKACiiigAooooAKKKKACiiigAooooAKKKKACiiigAooooAKKKKACiiigAooooAKKKKACiiigAooooAKKKKACiiigAooooAKKKKACiiigAooooAKKKKACiiigAooooAKKKKACiiigAooooAKKKKACiiigAooooAKKKKACiiigAooooAKKKKACiiigAooooAKKKKACiiigAooooAKKKKACiiigAooooAKKKKACiiigAooooAKKKKACiiigAooooAKKKKACiiigAooooAKKKKACiiigAooooAKKKKACiiigAooooAKKKKACiiigAooooAKKKKACiiigAooooAKKKKACiiigAooooAKKKKAP/2Q==;" parent="1" vertex="1">
          <mxGeometry x="90" y="-110" width="900" height="900" as="geometry" />
        </mxCell>
        <mxCell id="0u3PnH_AoCxucKV_yEJA-5" value="" style="rounded=0;whiteSpace=wrap;html=1;fillColor=#e1d5e7;strokeColor=#9673a6;opacity=50;" parent="1" vertex="1">
          <mxGeometry x="270" y="130" width="210" height="80" as="geometry" />
        </mxCell>
        <mxCell id="ptkSDSpLwLljKRlfbuVY-1" value="" style="shape=image;verticalLabelPosition=bottom;labelBackgroundColor=default;verticalAlign=top;aspect=fixed;imageAspect=0;image=data:image/jpeg,/9j/4AAQSkZJRgABAQEBLAEsAAD/2wBDAAgGBgcGBQgHBwcJCQgKDBQNDAsLDBkSEw8UHRofHh0aHBwgJC4nICIsIxwcKDcpLDAxNDQ0Hyc5PTgyPC4zNDL/2wBDAQkJCQwLDBgNDRgyIRwhMjIyMjIyMjIyMjIyMjIyMjIyMjIyMjIyMjIyMjIyMjIyMjIyMjIyMjIyMjIyMjIyMjL/wAARCAOEA4QDASIAAhEBAxEB/8QAHwAAAQUBAQEBAQEAAAAAAAAAAAECAwQFBgcICQoL/8QAtRAAAgEDAwIEAwUFBAQAAAF9AQIDAAQRBRIhMUEGE1FhByJxFDKBkaEII0KxwRVS0fAkM2JyggkKFhcYGRolJicoKSo0NTY3ODk6Q0RFRkdISUpTVFVWV1hZWmNkZWZnaGlqc3R1dnd4eXqDhIWGh4iJipKTlJWWl5iZmqKjpKWmp6ipqrKztLW2t7i5usLDxMXGx8jJytLT1NXW19jZ2uHi4+Tl5ufo6erx8vP09fb3+Pn6/8QAHwEAAwEBAQEBAQEBAQAAAAAAAAECAwQFBgcICQoL/8QAtREAAgECBAQDBAcFBAQAAQJ3AAECAxEEBSExBhJBUQdhcRMiMoEIFEKRobHBCSMzUvAVYnLRChYkNOEl8RcYGRomJygpKjU2Nzg5OkNERUZHSElKU1RVVldYWVpjZGVmZ2hpanN0dXZ3eHl6goOEhYaHiImKkpOUlZaXmJmaoqOkpaanqKmqsrO0tba3uLm6wsPExcbHyMnK0tPU1dbX2Nna4uPk5ebn6Onq8vP09fb3+Pn6/9oADAMBAAIRAxEAPwD5/ooooAKKKKACiiigAooooAKKKKACiiigAooooAKKKKACiiigAooooAKKKKACiiigAooooAKKKKACiiigAooooAKKKKACiiigAooooAKKKKACiiigAooooAKKKKACiiigAooooAKKKKACiiigAooooAKKKKACiiigAooooAKKKKACiiigAooooAKKKKACiiigAooooAKKKKACiiigAooooAKKKKACiiigAooooAKKKKACiiigAooooAKKKKACiiigAooooAKKKKACiiigAooooAKKKKACiiigAooooAKKKKACiiigAooooAKKKntLSa+uUt7dC8rkBEUEliTgAAdTk1dKlOrNQgrtg3YgoroP+EH8Tf8AQE1D/wABJP8A4mj/AIQfxN/0BNQ/8BJP/ia6v7OxP8v4r/MPkc/RXQf8IP4m/wCgJqH/AICSf/E0f8IP4m/6Amof+Akn/wATR/Z2J/l/Ff5h8jn6K6D/AIQfxN/0BNQ/8BJP/iaP+EH8Tf8AQE1D/wABJP8A4mj+zsT/AC/iv8w+Rz9FdB/wg/ib/oCah/4CSf8AxNH/AAg/ib/oCah/4CSf/E0f2dif5fxX+YfI5+iug/4QfxN/0BNQ/wDAST/4mj/hB/E3/QE1D/wEk/8AiaP7OxP8v4r/ADD5HP0V0H/CD+Jv+gJqH/gJJ/8AE0f8IP4m/wCgJqH/AICSf/E0f2dif5fxX+YfI5+iug/4QfxN/wBATUP/AAEk/wDiaP8AhB/E3/QE1D/wEk/+Jo/s7E/y/iv8w+Rz9FdB/wAIP4m/6Amof+Akn/xNH/CD+Jv+gJqH/gJJ/wDE0f2dif5fxX+YfI5+iug/4QfxN/0BNQ/8BJP/AImj/hB/E3/QE1D/AMBJP/iaP7OxP8v4r/MPkc/RXQf8IP4m/wCgJqH/AICSf/E0f8IP4m/6Amof+Akn/wATR/Z2J/l/Ff5h8jn6K6D/AIQfxN/0BNQ/8BJP/iaP+EH8Tf8AQE1D/wABJP8A4mj+zsT/AC/iv8w+Rz9FdB/wg/ib/oCah/4CSf8AxNH/AAg/ib/oCah/4CSf/E0f2dif5fxX+YfI5+iug/4QfxN/0BNQ/wDAST/4mj/hB/E3/QE1D/wEk/8AiaP7OxP8v4r/ADD5HP0V0H/CD+Jv+gJqH/gJJ/8AE0f8IP4m/wCgJqH/AICSf/E0f2dif5fxX+YfI5+iug/4QfxN/wBATUP/AAEk/wDiaP8AhB/E3/QE1D/wEk/+Jo/s7E/y/iv8w+Rz9FdB/wAIP4m/6Amof+Akn/xNH/CD+Jv+gJqH/gJJ/wDE0f2dif5fxX+YfI5+iug/4QfxN/0BNQ/8BJP/AImj/hB/E3/QE1D/AMBJP/iaP7OxP8v4r/MPkc/RXQf8IP4m/wCgJqH/AICSf/E0f8IP4m/6Amof+Akn/wATR/Z2J/l/Ff5h8jn6K6D/AIQfxN/0BNQ/8BJP/iaP+EH8Tf8AQE1D/wABJP8A4mj+zsT/AC/iv8w+Rz9FdB/wg/ib/oCah/4CSf8AxNH/AAg/ib/oCah/4CSf/E0f2dif5fxX+YfI5+iug/4QfxN/0BNQ/wDAST/4mj/hB/E3/QE1D/wEk/8AiaP7OxP8v4r/ADD5HP0V0H/CD+Jv+gJqH/gJJ/8AE0f8IP4m/wCgJqH/AICSf/E0f2dif5fxX+YfI5+iug/4QfxN/wBATUP/AAEk/wDiaP8AhB/E3/QE1D/wEk/+Jo/s7E/y/iv8w+Rz9FdB/wAIP4m/6Amof+Akn/xNH/CD+Jv+gJqH/gJJ/wDE0f2dif5fxX+YfI5+iug/4QfxN/0BNQ/8BJP/AImj/hB/E3/QE1D/AMBJP/iaP7OxP8v4r/MPkc/RXQf8IP4m/wCgJqH/AICSf/E0f8IP4m/6Amof+Akn/wATR/Z2J/l/Ff5h8jn6K6bTvh94n1aKaSx0wyrDKYZN0qRlJBjKkOQcjI7Vc/4VT41/6Av/AJNQ/wDxdclWEqU3Cpo0XGnOSuk/uONorsv+FU+Nf+gL/wCTUP8A8XR/wqnxr/0Bf/JqH/4uo5l3H7Gp/K/uONooopmYUUUUAFFFFABRRRQAUUUUAFFFFABRRRQAUUUUAFFFFABRRRQAUUUUAFFFFABRRRQAUUUUAFFFFABRRRQAUUUUAFFFFABRRRQAUUUUAFFFFABRRRQAUUUUAFFFFABRRRQAUUUUAFFFFABRRRQAV0Hgf/kddH/6/If/AEYtc/XQeB/+R10f/r8h/wDRi125d/vMfn+TDsfVVFFFeMfRBRRRQAUUUUAFFFFABRRRQAUUUUAFFFFABRRRQAUUUUAFFFFABRRRQAUUUUAFFFFABRRRQAUUUUAFFFFABRRRQAUUUUAFFFFABRRRQAUUUUAFFFFABRRRQAUUUUAFFFFABRRRQByngb/mZP8AsO3X/stdXXKeBv8AmZP+w7df+y11dehmn+9z+X5Iww/8JBRRRXnm58a0UUV2HzoUUUUAFFFFABRRRQAUUUUAFFFFABRRRQAUUUUAFFFFABRRRQAUUUUAFFFFABRRRQAUUUUAFFFFABRRRQAUUUUAFFFFABRRRQAUUUUAFFFFABRRRQAUUUUAFFFFABRRRQAUUUUAFFFFABRRRQAV0Hgf/kddH/6/If8A0Ytc/XQeB/8AkddH/wCvyH/0YtduXf7zH5/kw7H1VRRRXjH0QUUVxvj3x7/whH9n/wDEt+2/bPM/5b+Xs2bf9k5zu/Smk27Imc1Bc0tjsqK8a/4X1/1LX/k9/wDa6P8AhfX/AFLX/k9/9rqvZyMPrdHv+Z7LRXjX/C+v+pa/8nv/ALXR/wAL6/6lr/ye/wDtdHs5B9bo9/zPZaK8a/4X1/1LX/k9/wDa6P8AhfX/AFLX/k9/9ro9nIPrdHv+Z7LRXjX/AAvr/qWv/J7/AO10f8L6/wCpa/8AJ7/7XR7OQfW6Pf8AM9lorxr/AIX1/wBS1/5Pf/a6P+F9f9S1/wCT3/2uj2cg+t0e/wCZ7LRXjX/C+v8AqWv/ACe/+10f8L6/6lr/AMnv/tdHs5B9bo9/zPZaK8a/4X1/1LX/AJPf/a6P+F9f9S1/5Pf/AGuj2cg+t0e/5nstFeNf8L6/6lr/AMnv/tdH/C+v+pa/8nv/ALXR7OQfW6Pf8z2WivGv+F9f9S1/5Pf/AGuj/hfX/Utf+T3/ANro9nIPrdHv+Z7LRXjX/C+v+pa/8nv/ALXR/wAL6/6lr/ye/wDtdHs5B9bo9/zPZaK8a/4X1/1LX/k9/wDa6P8AhfX/AFLX/k9/9ro9nIPrdHv+Z7LRXjX/AAvr/qWv/J7/AO10f8L6/wCpa/8AJ7/7XR7OQfW6Pf8AM9lorxr/AIX1/wBS1/5Pf/a6P+F9f9S1/wCT3/2uj2cg+t0e/wCZ7LRXjX/C+v8AqWv/ACe/+10f8L6/6lr/AMnv/tdHs5B9bo9/zPZaK8a/4X1/1LX/AJPf/a6P+F9f9S1/5Pf/AGuj2cg+t0e/5nstFeNf8L6/6lr/AMnv/tdH/C+v+pa/8nv/ALXR7OQfW6Pf8z2WivGv+F9f9S1/5Pf/AGuj/hfX/Utf+T3/ANro9nIPrdHv+Z7LRXjX/C+v+pa/8nv/ALXR/wAL6/6lr/ye/wDtdHs5B9bo9/zPZaK8a/4X1/1LX/k9/wDa6P8AhfX/AFLX/k9/9ro9nIPrdHv+Z7LRXjX/AAvr/qWv/J7/AO10f8L6/wCpa/8AJ7/7XR7OQfW6Pf8AM9lorxr/AIX1/wBS1/5Pf/a6P+F9f9S1/wCT3/2uj2cg+t0e/wCZ7LRXjX/C+v8AqWv/ACe/+10f8L6/6lr/AMnv/tdHs5B9bo9/zPZaK8a/4X1/1LX/AJPf/a6P+F9f9S1/5Pf/AGuj2cg+t0e/5nstFeNf8L6/6lr/AMnv/tdH/C+v+pa/8nv/ALXR7OQfW6Pf8zuvA3/Myf8AYduv/Za6uuH+F9//AGrouq6j5Xlfa9Umn8vdu2blRsZwM4z1ruK7c0/3ufy/JFYZ3pJhRRRXnm58a0UUV2HzoUUUUAFFFFABRRRQAUUUUAFFFFABRRRQAUUUUAFFFFABRRRQAUUUUAFFFFABRRRQAUUUUAFFFFABRRRQAUUUUAFFFFABRRRQAUUUUAFFFFABRRRQAUUUUAFFFFABRRRQAUUUUAFFFFABRRRQAV0Hgf8A5HXR/wDr8h/9GLXP10Hgf/kddH/6/If/AEYtduXf7zH5/kw7H1VRRRXjH0QV418ev+Zf/wC3n/2lXsteNfHr/mX/APt5/wDaVXT+I5sX/Bf9dTxqiiiuk8YKKKKACiiigAooooAKKKKACiiigAooooAKKKKACiiigAooooAKKKKACiiigAooooAKKKKACiiigAooooAKKKKACiiigAooooAKKKKACiiigAooooAKKKKACiiigD6G+DH/ACJU3/X43/ouOvRK87+DH/IlTf8AX43/AKLjr0Stc1/3ufy/JHs4T+BEKKKK846T41ooorsPnQooooAKKKKACiiigAooooAKKKKACiiigAooooAKKKKACiiigAooooAKKKKACiiigAooooAKKKKACiiigAooooAKKKKACiiigAooooAKKKKACiiigAooooAKKKKACiiigAooooAKKKKACiiigAroPA//ACOuj/8AX5D/AOjFrn66DwP/AMjro/8A1+Q/+jFrty7/AHmPz/Jh2PqqiiivGPogrxr49f8AMv8A/bz/AO0q9lrxr49f8y//ANvP/tKrp/Ec2L/gv+up41RRRXSeMFFFFABRRRQAUUUUAFFFFABRRRQAUUUUAFFFFABRRRQAUUUUAFFFFABRRRQAUUUUAFFFFABRRRQAUUUUAFFFFABRRRQAUUUUAFFFFABRRRQAUUUUAFFFFABRRRQB9DfBj/kSpv8Ar8b/ANFx16JXnfwY/wCRKm/6/G/9Fx16JWua/wC9z+X5I9nCfwIhRRRXnHSfGtFFFdh86FFFFABRRRQAUUUUAFFFFABRRRQAUUUUAFFFFABRRRQAUUUUAFFFFABRRRQAUUUUAFFFFABRRRQAUUUUAFFFFABRRRQAUUUUAFFFFABRRRQAUUUUAFFFFABRRRQAUUUUAFFFFABRRRQAUUUUAFdB4H/5HXR/+vyH/wBGLXP10Hgf/kddH/6/If8A0YtduXf7zH5/kw7H1VRRRXjH0QV418ev+Zf/AO3n/wBpV7LXjXx6/wCZf/7ef/aVXT+I5sX/AAX/AF1PGqKKK6TxgooooAKKKKACiiigAooooAKKKKACiiigAooooAKKKKACiiigAooooAKKKKACiiigAooooAKKKKACiiigAooooAKKKKACiiigAooooAKKKKACiiigAooooAKKKKAPob4Mf8iVN/1+N/6Ljr0SvO/gx/yJU3/X43/ouOvRK1zX/e5/L8kezhP4EQooorzjpPjWiiiuw+dCiiigAooooAKKKKACiiigAooooAKKKKACiiigAooooAKKKKACiiigAooooAKKKKACiiigAooooAKKKKACiiigAooooAKKKKACiiigAooooAKKKKACiiigAooooAKKKKACiiigAooooAKKKKACug8D/wDI66P/ANfkP/oxa5+ug8D/API66P8A9fkP/oxa7cu/3mPz/Jh2PqqiiivGPogrxr49f8y//wBvP/tKvZa8a+PX/Mv/APbz/wC0qun8RzYv+C/66njVFFFdJ4wUUUUAFFFFABRRRQAUUUUAFFFFABRRRQAUUUUAFFFFABRRRQAUUUUAFFFFABRRRQAUUUUAFFFFABRRRQAUUUUAFFFFABRRRQAUUUUAFFFFABRRRQAUUUUAFFFFAH0N8GP+RKm/6/G/9Fx16JXnfwY/5Eqb/r8b/wBFx16JWua/73P5fkj2cJ/AiFFFFecdJ8a0UUV2HzoUUUUAFFFFABRRRQAUUUUAFFFFABRRRQAUUUUAFFFFABRRRQAUUUUAFFFFABRRRQAUUUUAFFFFABRRRQAUUUUAFFFFABRRRQAUUUUAFFFFABRRRQAUUUUAFFFFABRRRQAUUUUAFFFFABRRRQAV0Hgf/kddH/6/If8A0Ytc/XQeB/8AkddH/wCvyH/0YtduXf7zH5/kw7H1VRRRXjH0QV418ev+Zf8A+3n/ANpV7LXjXx6/5l//ALef/aVXT+I5sX/Bf9dTxqiiiuk8YKKKKACiiigAooooAKKKKACiiigAooooAKKKKACiiigAooooAKKKKACiiigAooooAKKKKACiiigAooooAKKKKACiiigAooooAKKKKACiiigAooooAKKKKACiiigD6G+DH/IlTf8AX43/AKLjr0SvO/gx/wAiVN/1+N/6Ljr0Stc1/wB7n8vyR7OE/gRCiiivOOk+NaKKK7D50KKKKACiiigAooooAKKKKACiiigAooooAKKKKACiiigAooooAKKKKACiiigAooooAKKKKACiiigAooooAKKKKACiiigAooooAKKKKACiiigAooooAKKKKACiiigAooooAKKKKACiiigAooooAK6DwP8A8jro/wD1+Q/+jFrn66DwP/yOuj/9fkP/AKMWu3Lv95j8/wAmHY+qqKKK8Y+iCvGvj1/zL/8A28/+0q9lrxr49f8AMv8A/bz/AO0qun8RzYv+C/66njVFFFdJ4wUUUUAFFFFABRRRQAUUUUAFFFFABRRRQAUUUUAFFFFABRRRQAUUUUAFFFFABRRRQAUUUUAFFFFABRRRQAUUUUAFFFFABRRRQAUUUUAFFFFABRRRQAUUUUAFFFFAH0N8GP8AkSpv+vxv/RcdeiV538GP+RKm/wCvxv8A0XHXola5r/vc/l+SPZwn8CIUUUV5x0nxrRRRXYfOhRRRQAUUUUAFFFFABRRRQAUUUUAFFFFABRRRQAUUUUAFFFFABRRRQAUUUUAFFFFABRRRQAUUUUAFFFFABRRRQAUUUUAFFFFABRRRQAUUUUAFFFFABRRRQAUUUUAFFFFABRRRQAUUUUAFFFFABXQeB/8AkddH/wCvyH/0Ytc/XQeB/wDkddH/AOvyH/0YtduXf7zH5/kw7H1VRRRXjH0QV418ev8AmX/+3n/2lXsteNfHr/mX/wDt5/8AaVXT+I5sX/Bf9dTxqiiiuk8YKKKKACiiigAooooAKKKKACiiigAooooAKKKKACiiigAooooAKKKKACiiigAooooAKKKKACiiigAooooAKKKKACiiigAooooAKKKKACiiigAooooAKKKKACiiigD6G+DH/IlTf9fjf+i469Erzv4Mf8iVN/1+N/6Ljr0Stc1/3ufy/JHs4T+BEKKKK846T41ooorsPnQooooAKKKKACiiigAooooAKKKKACiiigAooooAKKKKACiiigAooooAKKKKACiiigAooooAKKKKACiiigAooooAKKKKACiiigAooooAKKKKACiiigAooooAKKKKACiiigAooooAKKKKACiiigAroPA//I66P/1+Q/8Aoxa5+ug8D/8AI66P/wBfkP8A6MWu3Lv95j8/yYdj6qooorxj6IK8a+PX/Mv/APbz/wC0q9lrxr49f8y//wBvP/tKrp/Ec2L/AIL/AK6njVFFFdJ4wUUUUAFFFFABRRRQAUUUUAFFFFABRRRQAUUUUAFFFFABRRRQAUUUUAFFFFABRRRQAUUUUAFFFFABRRRQAUUUUAFFFFABRRRQAUUUUAFFFFABRRRQAUUUUAFFFFAH0N8GP+RKm/6/G/8ARcdeiV538GP+RKm/6/G/9Fx16JWua/73P5fkj2cJ/AiFFFFecdJ8a0UUV2HzoUUUUAFFFFABRRRQAUUUUAFFFFABRRRQAUUUUAFFFFABRRRQAUUUUAFFFFABRRRQAUUUUAFFFFABRRRQAUUUUAFFFFABRRRQAUUUUAFFFFABRRRQAUUUUAFFFFABRRRQAUUUUAFFFFABRRRQAV0Hgf8A5HXR/wDr8h/9GLXP10Hgf/kddH/6/If/AEYtduXf7zH5/kw7H1VRRRXjH0QV418ev+Zf/wC3n/2lXsteNfHr/mX/APt5/wDaVXT+I5sX/Bf9dTxqiiiuk8YKKKKACiiigAooooAKKKKACiiigAooooAKKKKACiiigAooooAKKKKACiiigAooooAKKKKACiiigAooooAKKKKACiiigAooooAKKKKACiiigAooooAKKKKACiiigD6G+DH/ACJU3/X43/ouOvRK87+DH/IlTf8AX43/AKLjr0Stc1/3ufy/JHs4T+BEKKKK846T41ooorsPnQooooAKKKKACiiigAooooAKKKKACiiigAooooAKKKKACiiigAooooAKKKKACiiigAooooAKKKKACiiigAooooAKKKKACiiigAooooAKKKKACiiigAooooAKKKKACiiigAooooAKKKKACiiigAroPA//ACOuj/8AX5D/AOjFrn66DwP/AMjro/8A1+Q/+jFrty7/AHmPz/Jh2PqqiiivGPogrxr49f8AMv8A/bz/AO0q9lrxr49f8y//ANvP/tKrp/Ec2L/gv+up41RRRXSeMFFFFABRRRQAUUUUAFFFFABRRRQAUUUUAFFFFABRRRQAUUUUAFFFFABRRRQAUUUUAFFFFABRRRQAUUUUAFFFFABRRRQAUUUUAFFFFABRRRQAUUUUAFFFFABRRRQB9DfBj/kSpv8Ar8b/ANFx16JXnfwY/wCRKm/6/G/9Fx16JWua/wC9z+X5I9nCfwIhRRRXnHSfGtFFFdh86FFFFABRRRQAUUUUAFFFFABRRRQAUUUUAFFFFABRRRQAUUUUAFFFFABRRRQAUUUUAFFFFABRRRQAUUUUAFFFFABRRRQAUUUUAFFFFABRRRQAUUUUAFFFFABRRRQAUUUUAFFFFABRRRQAUUUUAFdB4H/5HXR/+vyH/wBGLXP10Hgf/kddH/6/If8A0YtduXf7zH5/kw7H1VRRRXjH0QV418ev+Zf/AO3n/wBpV7LXjXx6/wCZf/7ef/aVXT+I5sX/AAX/AF1PGqKKK6TxgooooAKKKKACiiigAooooAKKKKACiiigAooooAKKKKACiiigAooooAKKKKACiiigAooooAKKKKACiiigAooooAKKKKACiiigAooooAKKKKACiiigAooooAKKKKAPob4Mf8iVN/1+N/6Ljr0SvO/gx/yJU3/X43/ouOvRK1zX/e5/L8kezhP4EQooorzjpPjWiiiuw+dCiiigAooooAKKKKACiiigAooooAKKKKACiiigAooooAKKKKACiiigAooooAKKKKACiiigAooooAKKKKACiiigAooooAKKKKACiiigAooooAKKKKACiiigAooooAKKKKACiiigAooooAKKKKACug8D/wDI66P/ANfkP/oxa5+ug8D/API66P8A9fkP/oxa7cu/3mPz/Jh2PqqiiivGPogrxr49f8y//wBvP/tKvZa8a+PX/Mv/APbz/wC0qun8RzYv+C/66njVFFFdJ4wUUUUAFFFFABRRRQAUUUUAFFFFABRRRQAUUUUAFFFFABRRRQAUUUUAFFFFABRRRQAUUUUAFFFFABRRRQAUUUUAFFFFABRRRQAUUUUAFFFFABRRRQAUUUUAFFFFAH0N8GP+RKm/6/G/9Fx16JXnfwY/5Eqb/r8b/wBFx16JWua/73P5fkj2cJ/AiFFFFecdJ8a0UUV2HzoUUUUAFFFFABRRRQAUUUUAFFFFABRRRQAUUUUAFFFFABRRRQAUUUUAFFFFABRRRQAUUUUAFFFFABRRRQAUUUUAFFFFABRRRQAUUUUAFFFFABRRRQAUUUUAFFFFABRRRQAUUUUAFFFFABRRRQAV0Hgf/kddH/6/If8A0Ytc/XQeB/8AkddH/wCvyH/0YtduXf7zH5/kw7H1VRRRXjH0QV418ev+Zf8A+3n/ANpV7LXjXx6/5l//ALef/aVXT+I5sX/Bf9dTxqiiiuk8YKKKKACiiigAooooAKKKKACiiigAooooAKKKKACiiigAooooAKKKKACiiigAooooAKKKKACiiigAooooAKKKKACiiigAooooAKKKKACiiigAooooAKKKKACiiigD6G+DH/IlTf8AX43/AKLjr0SvO/gx/wAiVN/1+N/6Ljr0Stc1/wB7n8vyR7OE/gRCiiivOOk+NaKKK7D50KKKKACiiigAooooAKKKKACiiigAooooAKKKKACiiigAooooAKKKKACiiigAooooAKKKKACiiigAooooAKKKKACiiigAooooAKKKKACiiigAooooAKKKKACiiigAooooAKKKKACiiigAooooAK6DwP8A8jro/wD1+Q/+jFrn66DwP/yOuj/9fkP/AKMWu3Lv95j8/wAmHY+qqKKK8Y+iCvGvj1/zL/8A28/+0q9lrxr49f8AMv8A/bz/AO0qun8RzYv+C/66njVFFFdJ4wUUUUAFFFFABRRRQAUUUUAFFFFABRRRQAUUUUAFFFFABRRRQAUUUUAFFFFABRRRQAUUUUAFFFFABRRRQAUUUUAFFFFABRRRQAUUUUAFFFFABRRRQAUUUUAFFFFAH0N8GP8AkSpv+vxv/RcdeiV538GP+RKm/wCvxv8A0XHXola5r/vc/l+SPZwn8CIUUUV5x0nxrRRRXYfOhRRRQAUUUUAFFFFABRRRQAUUUUAFFFFABRRRQAUUUUAFFFFABRRRQAUUUUAFFFFABRRRQAUUUUAFFFFABRRRQAUUUUAFFFFABRRRQAUUUUAFFFFABRRRQAUUUUAFFFFABRRRQAUUUUAFFFFABXQeB/8AkddH/wCvyH/0Ytc/XQeB/wDkddH/AOvyH/0YtduXf7zH5/kw7H1VRRRXjH0QV418ev8AmX/+3n/2lXstcb498Bf8Jv8A2f8A8TL7F9j8z/lh5m/ft/2hjG39auDSldmGIg503GO58z0V7L/woX/qZf8AyR/+2Uf8KF/6mX/yR/8Atlbe0ieZ9UrdvyPGqK9l/wCFC/8AUy/+SP8A9so/4UL/ANTL/wCSP/2yj2kQ+qVu35HjVFey/wDChf8AqZf/ACR/+2Uf8KF/6mX/AMkf/tlHtIh9UrdvyPGqK9l/4UL/ANTL/wCSP/2yj/hQv/Uy/wDkj/8AbKPaRD6pW7fkeNUV7L/woX/qZf8AyR/+2Uf8KF/6mX/yR/8AtlHtIh9UrdvyPGqK9l/4UL/1Mv8A5I//AGyj/hQv/Uy/+SP/ANso9pEPqlbt+R41RXsv/Chf+pl/8kf/ALZR/wAKF/6mX/yR/wDtlHtIh9UrdvyPGqK7Lx74C/4Qj+z/APiZfbftnmf8sPL2bNv+0c53fpXG1SaaujGcHB8stwooopkhRRRQAUUUUAFFFFABRRRQAUUUUAFFFdl4C8Bf8Jv/AGh/xMvsX2Py/wDlh5m/fu/2hjG39aTaSuyoQc3yx3ONor2X/hQv/Uy/+SP/ANso/wCFC/8AUy/+SP8A9sqfaRNvqlbt+R41RXsv/Chf+pl/8kf/ALZR/wAKF/6mX/yR/wDtlHtIh9UrdvyPGqK9l/4UL/1Mv/kj/wDbKP8AhQv/AFMv/kj/APbKPaRD6pW7fkeNUV7L/wAKF/6mX/yR/wDtlH/Chf8AqZf/ACR/+2Ue0iH1St2/I8aor2X/AIUL/wBTL/5I/wD2yj/hQv8A1Mv/AJI//bKPaRD6pW7fkeNUV7L/AMKF/wCpl/8AJH/7ZR/woX/qZf8AyR/+2Ue0iH1St2/I8aor2X/hQv8A1Mv/AJI//bKP+FC/9TL/AOSP/wBso9pEPqlbt+R41RXsv/Chf+pl/wDJH/7ZR/woX/qZf/JH/wC2Ue0iH1St2/I8aor2X/hQv/Uy/wDkj/8AbKP+FC/9TL/5I/8A2yj2kQ+qVu35HQ/Bj/kSpv8Ar8b/ANFx16JXD/C+w/srRdV07zfN+yapNB5m3bv2qi5xk4zjpXcV0Zr/AL3P5fkj0sIrUYoKKKK846D41ooorsPnQooooAKKKKACiiigAooooAKKKKACiiigAooooAKKKKACiiigAooooAKKKKACiiigAooooAKKKKACiiigAooooAKKKKACiiigAooooAKKKKACiiigAooooAKKKKACiiigAooooAKKKKACiiigAroPA/8AyOuj/wDX5D/6MWufrpPAVhNqfjTTrS3uvss7Mzxz+WH8tkUyA7TweUrrwNSFOvGVR2Wuvy8rsEm2kj6morlP7A8Xf9Dt/wCUqL/Gj+wPF3/Q7f8AlKi/xrD6nR/6CIfdU/8AkD2/az/kf/kv+Z1dFcp/YHi7/odv/KVF/jR/YHi7/odv/KVF/jR9To/9BEPuqf8AyAe1n/I//Jf8zq6K5T+wPF3/AEO3/lKi/wAaP7A8Xf8AQ7f+UqL/ABo+p0f+giH3VP8A5APaz/kf/kv+Z1dFcp/YHi7/AKHb/wApUX+NH9geLv8Aodv/AClRf40fU6P/AEEQ+6p/8gHtZ/yP/wAl/wAzq6K5T+wPF3/Q7f8AlKi/xo/sDxd/0O3/AJSov8aPqdH/AKCIfdU/+QD2s/5H/wCS/wCZ1dFcp/YHi7/odv8AylRf40f2B4u/6Hb/AMpUX+NH1Oj/ANBEPuqf/IB7Wf8AI/8AyX/M6uiuU/sDxd/0O3/lKi/xo/sDxd/0O3/lKi/xo+p0f+giH3VP/kA9rP8Akf8A5L/mdXRXCakPFGgXejyXHif7bBdalBayQ/YIo8qxOeRk9Bj8a7ussThfYRjJTUlK9mr9PVJlU6nO2mmmu9v0bCiiiuQ1PGvj1/zL/wD28/8AtKvGq9l+PX/Mv/8Abz/7Srxqumn8J4uL/jP+ugUUUVZzhRRRQAUUUUAFFFFABRRRQAUUUUAFey/AX/mYP+3b/wBq141Xo/wkj1a61G/stK1b+zTJF5ssn2ZJt+wgAYbp/rDyK2o4Z4i8eZRSV23e1l6Jv8DahPkqp2ufQdFcp/YHi7/odv8AylRf40f2B4u/6Hb/AMpUX+NT9To/9BEPuqf/ACB6vtZ/yP8A8l/zOrorlP7A8Xf9Dt/5Sov8aP7A8Xf9Dt/5Sov8aPqdH/oIh91T/wCQD2s/5H/5L/mdXRXKf2B4u/6Hb/ylRf40f2B4u/6Hb/ylRf40fU6P/QRD7qn/AMgHtZ/yP/yX/M6uiuU/sDxd/wBDt/5Sov8AGj+wPF3/AEO3/lKi/wAaPqdH/oIh91T/AOQD2s/5H/5L/mdXRXKf2B4u/wCh2/8AKVF/jR/YHi7/AKHb/wApUX+NH1Oj/wBBEPuqf/IB7Wf8j/8AJf8AM6uiuU/sDxd/0O3/AJSov8aP7A8Xf9Dt/wCUqL/Gj6nR/wCgiH3VP/kA9rP+R/8Akv8AmdXRXKf2B4u/6Hb/AMpUX+NH9geLv+h2/wDKVF/jR9To/wDQRD7qn/yAe1n/ACP/AMl/zOrorlP7A8Xf9Dt/5Sov8aP7A8Xf9Dt/5Sov8aPqdH/oIh91T/5APaz/AJH/AOS/5nV0Vyn9geLv+h2/8pUX+NH9geLv+h2/8pUX+NH1Oj/0EQ+6p/8AIB7Wf8j/APJf8w8Df8zJ/wBh26/9lrq6xPDOgzaBaXkdxf8A22e6u3upJvJEeWYDPAJHUZ/GtuozCpCpiZSpu67/AC87MdCLjTSluFFFFcRsfGtFFFdh86FFFFABRRRQAUUUUAFFFFABRRRQAUUUUAFFFFABRRRQAUUUUAFFFFABRRRQAUUUUAFFFFABRRRQAUUUUAFFFFABRRRQAUUUUAFFFFABRRRQAUUUUAFFFFABRRRQAUUUUAFFFFABRRRQAUUUUAFdl8Kf+Sl6R/22/wDRL1xtXdJ1a90PU4dR06fybuHd5cmxWxkFTwwI6E0mrqxdOSjNSfQ+vaK+Z/8Aha3jX/oNf+SsP/xFH/C1vGv/AEGv/JWH/wCIrH2TPS+vU+z/AK+Z9MUV8z/8LW8a/wDQa/8AJWH/AOIo/wCFreNf+g1/5Kw//EUeyYfXqfZ/18z6Yor5n/4Wt41/6DX/AJKw/wDxFH/C1vGv/Qa/8lYf/iKPZMPr1Ps/6+Z9MUV8z/8AC1vGv/Qa/wDJWH/4ij/ha3jX/oNf+SsP/wARR7Jh9ep9n/XzPpiivmf/AIWt41/6DX/krD/8RR/wtbxr/wBBr/yVh/8AiKPZMPr1Ps/6+Z9MUV8z/wDC1vGv/Qa/8lYf/iKP+FreNf8AoNf+SsP/AMRR7Jh9ep9n/XzPpiivmf8A4Wt41/6DX/krD/8AEUf8LW8a/wDQa/8AJWH/AOIo9kw+vU+z/r5ntvjn/mW/+w7a/wDs1dXXzrofjbxD4k8UaJZ6tqH2i3TUIJVTyY0wwcAHKqD0Y19FV2YpWwtFf4vzKw9RVJzkvIKKKK846zxr49f8y/8A9vP/ALSrxqvZfj1/zL//AG8/+0q8arpp/CeLi/4z/roFFFFWc4UUUUAFFFFABRRRQAUUUUAFFFFABXqfwO/5Ga8/683/APQ468sr1P4Hf8jNef8AXm//AKHHXZhPhq/4H+hpR/ix9T3eiiivHPeCiivDfiD8QfFGh+ONR07TtT8m0h8ry4/s8TYzGrHllJ6k1UYuTsjKrVjSjzSPcqK+Z/8Aha3jX/oNf+SsP/xFH/C1vGv/AEGv/JWH/wCIq/ZM5/r1Ps/6+Z9MUV8z/wDC1vGv/Qa/8lYf/iKP+FreNf8AoNf+SsP/AMRR7Jh9ep9n/XzPpiivmf8A4Wt41/6DX/krD/8AEUf8LW8a/wDQa/8AJWH/AOIo9kw+vU+z/r5n0xRXzP8A8LW8a/8AQa/8lYf/AIij/ha3jX/oNf8AkrD/APEUeyYfXqfZ/wBfM+mKK+Z/+FreNf8AoNf+SsP/AMRR/wALW8a/9Br/AMlYf/iKPZMPr1Ps/wCvmfTFFfM//C1vGv8A0Gv/ACVh/wDiKP8Aha3jX/oNf+SsP/xFHsmH16n2f9fM+mKK+Z/+FreNf+g1/wCSsP8A8RR/wtbxr/0Gv/JWH/4ij2TD69T7P+vmfTFFfM//AAtbxr/0Gv8AyVh/+Io/4Wt41/6DX/krD/8AEUeyYfXqfZ/18z6Yor5n/wCFreNf+g1/5Kw//EUf8LW8a/8AQa/8lYf/AIij2TD69T7P+vmcbRRRW55QUUUUAFFFFABRRRQAUUUUAFFFFABRRRQAUUUUAFFFFABRRRQAUUUUAFFFFABRRRQAUUUUAFFFFABRRRQAUUUUAFFFFABRRRQAUUUUAFFFFABRRRQAUUUUAFFFFABRRRQAUUUUAFFFFABRRRQAUUUUAFFFFABRRRQAUUUUAFFFFABRRRQAUUUUAFFFFAHQeB/+R10f/r8h/wDRi19VV8q+B/8AkddH/wCvyH/0YtfVVdGM/wB2o/8Ab35no5f9oKKKK8s9E8a+PX/Mv/8Abz/7SrxqvZfj1/zL/wD28/8AtKvGq6afwni4v+M/66BRRRVnOFFFFABRRRQAUUUUAFFFFABRRRQAV6n8Dv8AkZrz/rzf/wBDjryyvU/gd/yM15/15v8A+hx12YT4av8Agf6GlH+LH1Pd6KKK8c94K+Z/it/yUvV/+2P/AKJSvpivmf4rf8lL1f8A7Y/+iUrWlucWO/hr1/zONooorc8oKKKKACiiigAooooAKKKKACiiigAooooAKKKKACiiigAooooAKKKKACiiigAooooAKKKKACiiigAooooAKKKKACiiigAooooAKKKKACiiigAooooAKKKKACiiigAooooAKKKKACiiigAooooAKKKKACiiigAooooAKKKKACiiigAooooAKKKKACiiigAooooAKKKKACiiigAooooAKKKKACiiigAooooAKKKKACiiigDoPA//ACOuj/8AX5D/AOjFr6qr5V8D/wDI66P/ANfkP/oxa+qq6MZ/u1H/ALe/M9HL/tBRRRXlnonjXx6/5l//ALef/aVeNV7L8ev+Zf8A+3n/ANpV41XTT+E8XF/xn/XQKKKKs5wooooAKKKKACiiigAooooAKKKKACvU/gd/yM15/wBeb/8AocdeWV6n8Dv+RmvP+vN//Q467MJ8NX/A/wBDSj/Fj6nu9FFFeOe8FfM/xW/5KXq//bH/ANEpX0xXzP8AFb/kper/APbH/wBEpWtLc4sd/DXr/mcbRRRW55QUUUUAFFFFABRRRQAUUUUAFFFFABRRRQAUUUUAFFFFABRRRQAUUUUAFFFFABRRRQAUUUUAFFFFABRRRQAUUUUAFFFFABRRRQAUUUUAFFFFABRRRQAUUUUAFFFFABRRRQAUUUUAFFFFABRRRQAUUUUAFFFFABRRRQAUUUUAFFFFABRRRQAUUUUAFFFFABRRRQAUUUUAFFFFABRRRQAUUUUAFFFFABRRRQAUUUUAFFFFAHQeB/8AkddH/wCvyH/0YtfVVfKvgf8A5HXR/wDr8h/9GLX1VXRjP92o/wDb35no5f8AaCiiivLPRPGvj1/zL/8A28/+0q8ar2X49f8AMv8A/bz/AO0q8arpp/CeLi/4z/roFFFFWc4UUUUAFFFFABRRRQAUUUUAFFFFABXqfwO/5Ga8/wCvN/8A0OOvLK9T+B3/ACM15/15v/6HHXZhPhq/4H+hpR/ix9T3eiiivHPeCvmf4rf8lL1f/tj/AOiUr6Yr5n+K3/JS9X/7Y/8AolK1pbnFjv4a9f8AM42iiitzygooooAKKKKACiiigAooooAKKKKACiiigAooooAKKKKACiiigAooooAKKKKACiiigAooooAKKKKACiiigAooooAKKKKACiiigAooooAKKKKACiiigAooooAKKKKACiiigAooooAKKKKACiiigAooooAKKKKACiiigAooooAKKKKACiiigAooooAKKKKACiiigAooooAKKKKACiiigAooooAKKKKACiiigAooooAKKKKAOg8D/wDI66P/ANfkP/oxa+qq+VfA/wDyOuj/APX5D/6MWvqqujGf7tR/7e/M9HL/ALQUUUV5Z6J418ev+Zf/AO3n/wBpV41Xsvx6/wCZf/7ef/aVeNV00/hPFxf8Z/10CiiirOcKKKKACiiigAooooAKKKKACiiigAr1P4Hf8jNef9eb/wDocdeWV6n8Dv8AkZrz/rzf/wBDjrswnw1f8D/Q0o/xY+p7vRRRXjnvBXzP8Vv+Sl6v/wBsf/RKV9MV8z/Fb/kper/9sf8A0Sla0tzix38Nev8AmcbRRRW55QUUUUAFFFFABRRRQAUUUUAFFFFABRRRQAUUUUAFFFFABRRRQAUUUUAFFFFABRRRQAUUUUAFFFFABRRRQAUUUUAFFFFABRRRQAUUUUAFFFFABRRRQAUUUUAFFFFABRRRQAUUUUAFFFFABRRRQAUUUUAFFFFABRRRQAUUUUAFFFFABRRRQAUUUUAFFFFABRRRQAUUUUAFFFFABRRRQAUUUUAFFFFABRRRQAUUUUAFFFFAHQeB/wDkddH/AOvyH/0YtfVVfKvgf/kddH/6/If/AEYtfVVdGM/3aj/29+Z6OX/aCiiivLPRPGvj1/zL/wD28/8AtKvGq9l+PX/Mv/8Abz/7Srxqumn8J4uL/jP+ugUUUVZzhRRRQAUUUUAFFFFABRRRQAUUUUAFep/A7/kZrz/rzf8A9DjryyvU/gd/yM15/wBeb/8AocddmE+Gr/gf6GlH+LH1Pd6KKK8c94K+Z/it/wAlL1f/ALY/+iUr6Yr5n+K3/JS9X/7Y/wDolK1pbnFjv4a9f8zjaKKK3PKCiiigAooooAKKKKACiiigAooooAKKKKACiiigAooooAKKKKACiiigAooooAKKKKACiiigAooooAKKKKACiiigAooooAKKKKACiiigAooooAKKKKACiiigAooooAKKKKACiiigAooooAKKKKACiiigAooooAKKKKACiiigAooooAKKKKACiiigAooooAKKKKACiiigAooooAKKKKACiiigAooooAKKKKACiiigAooooA6DwP8A8jro/wD1+Q/+jFr6qr5V8D/8jro//X5D/wCjFr6qroxn+7Uf+3vzPRy/7QUUUV5Z6J418ev+Zf8A+3n/ANpV41Xsvx6/5l//ALef/aVeNV00/hPFxf8AGf8AXQKKKKs5wooooAKKKKACiiigAooooAKKKKACvU/gd/yM15/15v8A+hx15ZXqfwO/5Ga8/wCvN/8A0OOuzCfDV/wP9DSj/Fj6nu9FFFeOe8FfM/xW/wCSl6v/ANsf/RKV9MV8z/Fb/kper/8AbH/0Sla0tzix38Nev+ZxtFFFbnlBRRRQAUUUUAFFFFABRRRQAUUUUAFFFFABRRRQAUUUUAFFFFABRRRQAUUUUAFFFFABRRRQAUUUUAFFFFABRRRQAUUUUAFFFFABRRRQAUUUUAFFFFABRRRQAUUUUAFFFFABRRRQAUUUUAFFFFABRRRQAUUUUAFFFFABRRRQAUUUUAFFFFABRRRQAUUUUAFFFFABRRRQAUUUUAFFFFABRRRQAUUUUAFFFFABRRRQAUUUUAdB4H/5HXR/+vyH/wBGLX1VXyr4H/5HXR/+vyH/ANGLX1VXRjP92o/9vfmejl/2goooryz0Txr49f8AMv8A/bz/AO0q8ar2X49f8y//ANvP/tKvGq6afwni4v8AjP8AroFFFFWc4UUUUAFFFFABRRRQAUUUUAFFFFABXqfwO/5Ga8/683/9DjryyvU/gd/yM15/15v/AOhx12YT4av+B/oaUf4sfU93ooorxz3gr5n+K3/JS9X/AO2P/olK+mK+Z/it/wAlL1f/ALY/+iUrWlucWO/hr1/zONooorc8oKKKKACiiigAooooAKKKKACiiigAooooAKKKKACiiigAooooAKKKKACiiigAooooAKKKKACiiigAooooAKKKKACiiigAooooAKKKKACiiigAooooAKKKKACiiigAooooAKKKKACiiigAooooAKKKKACiiigAooooAKKKKACiiigAooooAKKKKACiiigAooooAKKKKACiiigAooooAKKKKACiiigAooooAKKKKACiiigDpvh9pyat4306xkmngWUufNt22yIVRnBU4ODlRXvP/CDf9TT4m/8ABh/9jXiXwp/5KXpH/bb/ANEvX0xWix+IoxVOErL5Ho4OjCcG5Lqcp/wg3/U0+Jv/AAYf/Y0f8IN/1NPib/wYf/Y11dFH9qYv+f8ABf5HV9Xpdjh7/wCF+mar5f8AaOsa3eeXny/tFysmzOM43IcZwPyqn/wpjwz/AM99Q/77j/8AiK9Eop/2ri/5/wAF/kJ4Si94nnf/AApjwz/z31D/AL7j/wDiKP8AhTHhn/nvqH/fcf8A8RXolFH9q4v+f8F/kL6pQ/lPO/8AhTHhn/nvqH/fcf8A8RR/wpjwz/z31D/vuP8A+Ir0Sij+1cX/AD/gv8g+qUP5Tzv/AIUx4Z/576h/33H/APEUf8KY8M/899Q/77j/APiK9Eoo/tXF/wA/4L/IPqlD+U87/wCFMeGf+e+of99x/wDxFH/CmPDP/PfUP++4/wD4ivRKKP7Vxf8AP+C/yD6pQ/lPO/8AhTHhn/nvqH/fcf8A8RR/wpjwz/z31D/vuP8A+Ir0Sij+1cX/AD/gv8g+qUP5Tzv/AIUx4Z/576h/33H/APEUf8KY8M/899Q/77j/APiK9Eoo/tXF/wA/4L/IPqlD+U87/wCFMeGf+e+of99x/wDxFbXhnwBpPhTUJL3T5rtpJIjEVlZCuCQc8KOflFdVRUzzLFTi4Sno99v8io4ajF8yjqFFFFcBuFfM/wAVv+Sl6v8A9sf/AESlfTFfM/xW/wCSl6v/ANsf/RKVrS3OLHfw16/5nG0UUVueUFFFFABRRRQAUUUUAFFFFABRRRQAUUUUAFFFFABRRRQAUUUUAFFFFABRRRQAUUUUAFFFFABRRRQAUUUUAFFFFABRRRQAUUUUAFFFFABRRRQAUUUUAFFFFABRRRQAUUUUAFFFFABRRRQAUUUUAFFFFABRRRQAUUUUAFFFFABRRRQAUUUUAFFFFABRRRQAUUUUAFFFFABRRRQAUUUUAFFFFABRRRQAUUUUAFFFFABRRRQB2Xwp/wCSl6R/22/9EvX0xXzP8Kf+Sl6R/wBtv/RL19MVhV3PVwP8N+v+QUUUVkdoUUUUAFFFFABRRRQAUUUUAFFFFABRRRQAUUUUAFFFFABRRRQAV8z/ABW/5KXq/wD2x/8ARKV9MV8z/Fb/AJKXq/8A2x/9EpWtLc4sd/DXr/mcbRRRW55QUUUUAFFFFABRRRQAUUUUAFFFFABRRRQAUUUUAFFFFABRRRQAUUUUAFFFFABRRRQAUUUUAFFFFABRRRQAUUUUAFFFFABRRRQAUUUUAFFFFABRRRQAUUUUAFFFFABRRRQAUUUUAFFFFABRRRQAUUUUAFFFFABRRRQAUUUUAFFFFABRRRQAUUUUAFFFFABRRRQAUUUUAFFFFABRRRQAUUUUAFFFFABRRRQAUUUUAFFFFABRRRQAUUUUAFFFFABRRRQAUUUUAFFFFABRRRQAUUUUAFFFFABRRRQAUUUUAFFFFABRRRQAUUUUAFFFFABRRRQAUUUUAFFFFABRRRQAUUUUAFFFFABRRRQAUUUUAFFFFABRRRQAUUUUAFFFFABRRRQAUUUUAFFFFABRRRQAUUUUAFFFFABRRRQAUUUUAFFFFABRRRQAUUUUAFFFFABRRRQAUUUUAFFFFABRRRQAUUUUAFFFFABRRRQAUUUUAFFFFABRRRQAUUUUAFFFFABRRRQAUUUUAFFFFABRRRQAUUUUAFFFFABRRRQAUUUUAFFFFABRRRQAUUUUAFFFFABRRRQAUUUUAFFFFABRRRQAUUUUAFFFFABRRRQAUUUUAFFFFABRRRQAUUUUAFFFFABRRRQAUUUUAFFFFABRRRQAUUUUAFFFFABRRRQAUUUUAFFFFABRRRQAUUUUAFFFFABRRRQAUUUUAFFFFABRRRQAUUUUAFFFFABRRRQAUUUUAFFFFABRRRQAUUUUAFFFFABRRRQAUUUUAFFFFABRRRQAUUUUAFFFFABRRRQAUUUUAFFFFABRRRQAUUUUAFFFFABRRRQAUUUUAFFFFABRRRQAUUUUAFFFFABRRRQAUUUUAFFFFABRRRQAUUUUAFFFFABRRRQAUUUUAFFFFABRRRQAUUUUAFFFFABRRRQAUUUUAFFFFABRRRQAUUUUAFFFFABRRRQAUUUUAFFFFABRRRQAUUUUAFFFFABRRRQAUUUUAFFFFABRRRQAUUUUAFFFFABRRRQAUUUUAFFFFABRRRQAUUUUAFFFFABRRRQAUUUUAFFFFABRRRQAUUUUAFFFFABRRRQAUUUUAFFFFABRRRQAUUUUAFFFFABRRRQAUUUUAFFFFABRRRQAUUUUAFFFFABRRRQAUUUUAFFFFABRRRQAUUUUAFFFFABRRRQAUUUUAFFFFABRRRQAUUUUAFFFFABRRRQAUUUUAFFFFABRRRQAUUUUAFFFFABRRRQAUUUUAFFFFABRRRQAUUUUAFFFFABRRRQAUUUUAFFFFABRRRQAUUUUAFFFFABRRRQAUUUUAFFFFABRRRQAUUUUAFFFFABRRRQAUUUUAFFFFABRRRQAUUUUAFFFFABRRRQAUUUUAFFFFABRRRQAUUUUAFFFFABRRRQAUUUUAFFFFABRRRQAUUUUAFFFFABRRRQAUUUUAFFFFABRRRQAUUUUAFFFFABRRRQAUUUUAFFFFABRRRQAUUUUAFFFFABRRRQAUUUUAFFFFABRRRQAUUUUAFFFFABRRRQAUUUUAFFFFABRRRQAUUUUAFFFFABRRRQAUUUUAFFFFABRRRQAUUUUAFFFFABRRRQAUUUUAFFFFABRRRQAUUUUAFFFFABRRRQAUUUUAFFFFABRRRQAUUUUAFFFFABRRRQAUUUUAFFFFABRRRQAUUUUAFFFFABRRRQAUUUUAFFFFABRRRQAUUUUAFFFFABRRRQAUUUUAFFFFABRRRQAUUUUAFFFFABRRRQAUUUUAFFFFABRRRQAUUUUAFFFFABRRRQAUUUUAFFFFABRRRQAUUUUAFFFFABRRRQAUUUUAFFFFABRRRQAUUUUAFFFFABRRRQAUUUUAFFFFABRRRQAUUUUAFFFFABRRRQAUUUUAFFFFABRRRQAUUUUAFFFFABRRRQAUUUUAFFFFABRRRQAUUUUAFFFFABRRRQAUUUUAFFFFABRRRQAUUUUAFFFFABRRRQAUUUUAFFFFABRRRQAUUUUAFFFFABRRRQAUUUUAFFFFABRRRQAUUUUAFFFFABRRRQAUUUUAFFFFABRRRQAUUUUAFFFFABRRRQAUUUUAFFFFABRRRQAUUUUAFFFFABRRRQAUUUUAFFFFABRRRQAUUUUAFFFFABRRRQAUUUUAFFFFABRRRQAUUUUAFFFFABRRRQAUUUUAFFFFABRRRQAUUUUAFFFFABRRRQAUUUUAFFFFABRRRQAUUUUAFFFFABRRRQAUUUUAFFFFABRRRQAUUUUAFFFFABRRRQAUUUUAFFFFABRRRQAUUUUAFFFFABRRRQAUUUUAFFFFABRRRQAUUUUAFFFFABRRRQAUUUUAFFFFABRRRQAUUUUAFFFFABRRRQAUUUUAFFFFABRRRQAUUUUAFFFFABRRRQAUUUUAFFFFABRRRQAUUUUAFFFFABRRRQAUUUUAFFFFABRRRQAUUUUAFFFFABRRRQAUUUUAFFFFABRRRQAUUUUAFFFFABRRRQAUUUUAFFFFABRRRQAUUUUAFFFFABRRRQAUUUUAFFFFABRRRQAUUUUAFFFFABRRRQAUUUUAFFFFABRRRQAUUUUAFFFFABRRRQAUUUUAFFFFABRRRQAUUUUAFFFFABRRRQAUUUUAFFFFABRRRQAUUUUAFFFFABRRRQAUUUUAFFFFABRRRQAUUUUAFFFFABRRRQAUUUUAFFFFABRRRQAUUUUAFFFFABRRRQAUUUUAFFFFABRRRQAUUUUAFFFFABRRRQAUUUUAFFFFABRRRQAUUUUAFFFFABRRRQAUUUUAFFFFABRRRQAUUUUAFFFFABRRRQAUUUUAFFFFABRRRQAUUUUAFFFFABRRRQAUUUUAFFFFABRRRQAUUUUAFFFFABRRRQAUUUUAFFFFABRRRQAUUUUAFFFFABRRRQAUUUUAFFFFABRRRQAUUUUAFFFFABRRRQAUUUUAFFFFABRRRQAUUUUAFFFFABRRRQAUUUUAFFFFABRRRQAUUUUAFFFFABRRRQAUUUUAFFFFABRRRQAUUUUAFFFFABRRRQAUUUUAFFFFABRRRQAUUUUAFFFFABRRRQAUUUUAFFFFABRRRQAUUUUAFFFFABRRRQAUUUUAFFFFABRRRQAUUUUAFFFFABRRRQAUUUUAFFFFABRRRQAUUUUAFFFFABRRRQAUUUUAFFFFABRRRQAUUUUAFFFFABRRRQAUUUUAFFFFABRRRQAUUUUAFFFFABRRRQAUUUUAFFFFABRRRQAUUUUAFFFFABRRRQAUUUUAFFFFABRRRQAUUUUAFFFFABRRRQAUUUUAFFFFABRRRQAUUUUAFFFFABRRRQAUUUUAFFFFABRRRQAUUUUAFFFFABRRRQAUUUUAFFFFABRRRQAUUUUAFFFFABRRRQAUUUUAFFFFABRRRQAUUUUAFFFFABRRRQAUUUUAFFFFABRRRQAUUUUAFFFFABRRRQAUUUUAFFFFABRRRQAUUUUAFFFFABRRRQAUUUUAFFFFABRRRQAUUUUAFFFFABRRRQAUUUUAFFFFABRRRQAUUUUAFFFFABRRRQAUUUUAFFFFABRRRQAUUUUAFFFFABRRRQAUUUUAFFFFABRRRQAUUUUAFFFFABRRRQAUUUUAFFFFABRRRQAUUUUAFFFFABRRRQAUUUUAFFFFABRRRQAUUUUAFFFFABRRRQAUUUUAFFFFABRRRQAUUUUAFFFFABRRRQAUUUUAFFFFABRRRQAUUUUAFFFFABRRRQAUUUUAFFFFABRRRQAUUUUAFFFFABRRRQAUUUUAFFFFABRRRQAUUUUAFFFFABRRRQAUUUUAFFFFABRRRQAUUUUAFFFFABRRRQAUUUUAFFFFABRRRQAUUUUAFFFFABRRRQAUUUUAFFFFABRRRQAUUUUAFFFFABRRRQAUUUUAFFFFABRRRQAUUUUAFFFFABRRRQAUUUUAFFFFABRRRQAUUUUAFFFFABRRRQAUUUUAFFFFABRRRQAUUUUAFFFFABRRRQAUUUUAFFFFABRRRQAUUUUAFFFFABRRRQAUUUUAFFFFABRRRQAUUUUAFFFFABRRRQAUUUUAFFFFABRRRQAUUUUAFFFFABRRRQAUUUUAFFFFABRRRQAUUUUAFFFFABRRRQAUUUUAFFFFABRRRQAUUUUAFFFFABRRRQAUUUUAFFFFABRRRQAUUUUAFFFFABRRRQAUUUUAFFFFABRRRQAUUUUAFFFFABRRRQAUUUUAFFFFABRRRQAUUUUAFFFFABRRRQAUUUUAFFFFABRRRQAUUUUAFFFFABRRRQAUUUUAFFFFABRRRQAUUUUAFFFFABRRRQAUUUUAFFFFABRRRQAUUUUAFFFFABRRRQAUUUUAFFFFABRRRQAUUUUAFFFFABRRRQAUUUUAFFFFABRRRQAUUUUAFFFFABRRRQAUUUUAFFFFABRRRQAUUUUAFFFFABRRRQAUUUUAFFFFABRRRQAUUUUAFFFFABRRRQAUUUUAFFFFABRRRQAUUUUAFFFFABRRRQAUUUUAFFFFABRRRQAUUUUAFFFFABRRRQAUUUUAFFFFABRRRQAUUUUAFFFFABRRRQAUUUUAFFFFABRRRQAUUUUAFFFFABRRRQAUUUUAFFFFABRRRQAUUUUAFFFFABRRRQAUUUUAFFFFABRRRQAUUUUAFFFFABRRRQAUUUUAFFFFABRRRQAUUUUAFFFFABRRRQAUUUUAFFFFABRRRQAUUUUAFFFFABRRRQAUUUUAFFFFABRRRQAUUUUAFFFFABRRRQAUUUUAFFFFABRRRQAUUUUAFFFFABRRRQAUUUUAFFFFABRRRQAUUUUAFFFFABRRRQAUUUUAFFFFABRRRQAUUUUAFFFFABRRRQAUUUUAFFFFABRRRQAUUUUAFFFFABRRRQAUUUUAFFFFABRRRQAUUUUAFFFFABRRRQAUUUUAFFFFABRRRQAUUUUAFFFFABRRRQAUUUUAFFFFABRRRQAUUUUAFFFFABRRRQAUUUUAFFFFABRRRQAUUUUAFFFFABRRRQAUUUUAFFFFABRRRQAUUUUAFFFFABRRRQAUUUUAFFFFABRRRQAUUUUAFFFFABRRRQAUUUUAFFFFABRRRQAUUUUAFFFFABRRRQAUUUUAFFFFABRRRQAUUUUAFFFFABRRRQAUUUUAFFFFABRRRQAUUUUAFFFFABRRRQAUUUUAFFFFABRRRQAUUUUAFFFFABRRRQAUUUUAFFFFABRRRQAUUUUAFFFFABRRRQAUUUUAFFFFABRRRQAUUUUAFFFFABRRRQAUUUUAFFFFABRRRQAUUUUAFFFFABRRRQAUUUUAFFFFABRRRQAUUUUAFFFFABRRRQAUUUUAFFFFABRRRQAUUUUAFFFFABRRRQAUUUUAFFFFABRRRQAUUUUAFFFFABRRRQAUUUUAFFFFABRRRQAUUUUAFFFFABRRRQAUUUUAFFFFABRRRQAUUUUAFFFFABRRRQAUUUUAFFFFABRRRQAUUUUAFFFFABRRRQAUUUUAFFFFABRRRQAUUUUAFFFFABRRRQAUUUUAFFFFABRRRQAUUUUAFFFFABRRRQAUUUUAFFFFABRRRQAUUUUAFFFFABRRRQAUUUUAFFFFABRRRQAUUUUAFFFFABRRRQAUUUUAFFFFABRRRQAUUUUAFFFFABRRRQAUUUUAFFFFABRRRQAUUUUAFFFFABRRRQAUUUUAFFFFABRRRQAUUUUAFFFFABRRRQAUUUUAFFFFABRRRQAUUUUAFFFFABRRRQAUUUUAFFFFABRRRQAUUUUAFFFFABRRRQAUUUUAFFFFABRRRQAUUUUAFFFFABRRRQAUUUUAFFFFABRRRQAUUUUAFFFFABRRRQAUUUUAFFFFABRRRQAUUUUAFFFFABRRRQAUUUUAFFFFABRRRQAUUUUAFFFFABRRRQAUUUUAFFFFABRRRQAUUUUAFFFFABRRRQAUUUUAFFFFABRRRQAUUUUAFFFFABRRRQAUUUUAFFFFABRRRQAUUUUAFFFFABRRRQAUUUUAFFFFABRRRQAUUUUAFFFFABRRRQAUUUUAFFFFABRRRQAUUUUAFFFFABRRRQAUUUUAFFFFABRRRQAUUUUAFFFFABRRRQAUUUUAFFFFABRRRQAUUUUAFFFFABRRRQAUUUUAFFFFABRRRQAUUUUAFFFFABRRRQAUUUUAFFFFABRRRQAUUUUAFFFFABRRRQAUUUUAFFFFABRRRQAUUUUAFFFFABRRRQAUUUUAFFFFABRRRQAUUUUAFFFFABRRRQAUUUUAFFFFABRRRQAUUUUAFFFFABRRRQAUUUUAFFFFABRRRQAUUUUAFFFFABRRRQAUUUUAFFFFABRRRQAUUUUAFFFFABRRRQAUUUUAFFFFABRRRQAUUUUAFFFFABRRRQAUUUUAFFFFABRRRQAUUUUAFFFFABRRRQAUUUUAFFFFABRRRQAUUUUAFFFFABRRRQAUUUUAFFFFABRRRQAUUUUAFFFFABRRRQAUUUUAFFFFABRRRQAUUUUAFFFFABRRRQAUUUUAFFFFABRRRQAUUUUAFFFFABRRRQAUUUUAFFFFABRRRQAUUUUAFFFFABRRRQAUUUUAFFFFABRRRQAUUUUAFFFFABRRRQAUUUUAFFFFABRRRQAUUUUAFFFFABRRRQAUUUUAFFFFABRRRQAUUUUAFFFFABRRRQAUUUUAFFFFABRRRQAUUUUAFFFFABRRRQAUUUUAFFFFABRRRQAUUUUAFFFFABRRRQAUUUUAFFFFABRRRQAUUUUAFFFFABRRRQAUUUUAFFFFABRRRQAUUUUAFFFFABRRRQAUUUUAFFFFABRRRQAUUUUAFFFFABRRRQAUUUUAFFFFABRRRQAUUUUAFFFFABRRRQAUUUUAFFFFABRRRQAUUUUAFFFFABRRRQAUUUUAFFFFABRRRQAUUUUAFFFFABRRRQAUUUUAFFFFABRRRQAUUUUAFFFFABRRRQAUUUUAFFFFABRRRQAUUUUAFFFFABRRRQAUUUUAFFFFABRRRQAUUUUAFFFFABRRRQAUUUUAFFFFABRRRQAUUUUAFFFFABRRRQAUUUUAFFFFABRRRQAUUUUAFFFFABRRRQAUUUUAFFFFABRRRQAUUUUAFFFFABRRRQAUUUUAFFFFABRRRQAUUUUAFFFFABRRRQAUUUUAFFFFABRRRQAUUUUAFFFFABRRRQAUUUUAFFFFABRRRQAUUUUAFFFFABRRRQAUUUUAFFFFABRRRQAUUUUAFFFFABRRRQAUUUUAFFFFABRRRQAUUUUAFFFFABRRRQAUUUUAFFFFABRRRQAUUUUAFFFFABRRRQAUUUUAFFFFABRRRQAUUUUAFFFFABRRRQAUUUUAFFFFABRRRQAUUUUAFFFFABRRRQAUUUUAFFFFABRRRQAUUUUAFFFFABRRRQAUUUUAFFFFABRRRQAUUUUAFFFFABRRRQAUUUUAFFFFABRRRQAUUUUAFFFFABRRRQAUUUUAFFFFABRRRQAUUUUAFFFFABRRRQAUUUUAFFFFABRRRQAUUUUAFFFFABRRRQAUUUUAFFFFABRRRQAUUUUAFFFFABRRRQAUUUUAFFFFABRRRQAUUUUAFFFFABRRRQAUUUUAFFFFABRRRQAUUUUAFFFFABRRRQAUUUUAFFFFABRRRQAUUUUAFFFFABRRRQAUUUUAFFFFABRRRQAUUUUAFFFFABRRRQAUUUUAFFFFABRRRQAUUUUAFFFFABRRRQAUUUUAFFFFABRRRQAUUUUAFFFFABRRRQAUUUUAFFFFABRRRQAUUUUAFFFFABRRRQAUUUUAFFFFABRRRQAUUUUAFFFFABRRRQAUUUUAFFFFABRRRQAUUUUAFFFFABRRRQAUUUUAFFFFABRRRQAUUUUAFFFFABRRRQAUUUUAFFFFABRRRQAUUUUAFFFFABRRRQAUUUUAFFFFABRRRQAUUUUAFFFFABRRRQAUUUUAFFFFABRRRQAUUUUAFFFFABRRRQAUUUUAFFFFABRRRQAUUUUAFFFFABRRRQAUUUUAFFFFABRRRQAUUUUAFFFFABRRRQAUUUUAFFFFABRRRQAUUUUAFFFFABRRRQAUUUUAFFFFABRRRQAUUUUAFFFFABRRRQAUUUUAFFFFABRRRQAUUUUAFFFFABRRRQAUUUUAFFFFABRRRQAUUUUAFFFFABRRRQAUUUUAFFFFABRRRQAUUUUAFFFFABRRRQAUUUUAFFFFABRRRQAUUUUAFFFFABRRRQAUUUUAFFFFABRRRQAUUUUAFFFFABRRRQAUUUUAFFFFABRRRQAUUUUAFFFFABRRRQAUUUUAFFFFABRRRQAUUUUAFFFFABRRRQAUUUUAFFFFABRRRQAUUUUAFFFFABRRRQAUUUUAFFFFAH/2Q==;" vertex="1" parent="1">
          <mxGeometry x="180" y="750" width="900" height="900" as="geometry" />
        </mxCell>
        <mxCell id="ptkSDSpLwLljKRlfbuVY-2" value="" style="rounded=0;whiteSpace=wrap;html=1;fillColor=#f8cecc;strokeColor=#b85450;opacity=50;" vertex="1" parent="1">
          <mxGeometry x="670" y="1360" width="260" height="200" as="geometry" />
        </mxCell>
      </root>
    </mxGraphModel>
  </diagram>
</mxfile>
